<svg version="1.1" id="Layer_1" xmlns="http://www.w3.org/2000/svg" xmlns:xlink="http://www.w3.org/1999/xlink" x="0px" y="0px"
	 width="100%" viewBox="0 0 1024 1024" enable-background="new 0 0 1024 1024" xml:space="preserve">
<path fill="#000000" opacity="1.000000" stroke="none" 
	d="
M216.860260,642.001404 
	C203.297745,612.237854 193.982346,581.556030 189.175110,549.604614 
	C185.250839,523.521912 184.152985,497.283539 186.486938,470.933441 
	C187.721222,456.998596 188.892166,443.062653 192.603378,429.528259 
	C202.190933,394.563538 234.965607,369.771210 271.319824,370.089935 
	C282.040344,370.183929 292.519165,372.083252 302.446655,376.442902 
	C313.045044,381.097198 318.405426,389.168365 318.267792,400.727386 
	C317.878967,433.382751 317.178680,466.036285 317.053497,498.692291 
	C316.961212,522.763794 306.222473,528.269470 287.850037,532.254272 
	C283.473846,533.203369 278.950500,534.003540 274.503693,533.960388 
	C269.206635,533.909058 268.924683,536.339294 269.643646,540.539124 
	C272.545593,557.490967 276.815460,574.071716 283.008362,590.111938 
	C306.273438,650.370850 345.801300,696.667847 402.134949,728.473572 
	C403.148712,729.045959 404.196564,729.560669 405.247375,730.062805 
	C405.533539,730.199524 405.888580,730.191956 406.308929,730.268127 
	C408.411041,729.146057 408.678650,726.803833 409.498688,724.898438 
	C412.819458,717.182312 417.097626,710.069763 422.617126,703.745117 
	C430.095367,695.175964 439.583588,692.452332 450.190765,696.022278 
	C482.692963,706.960999 515.092651,718.207153 547.473328,729.502747 
	C561.317749,734.332214 566.949707,741.893494 566.920837,756.292969 
	C566.833252,799.959351 534.165894,835.148743 491.950836,838.489197 
	C475.457886,839.794250 459.860565,835.794678 444.253174,831.805054 
	C381.711761,815.817993 327.958649,784.467407 282.900604,738.324707 
	C255.411804,710.174133 233.680450,677.974854 216.860260,642.001404 
M219.871521,435.528717 
	C219.854446,433.827271 220.628036,431.882812 218.099930,430.596832 
	C217.203247,432.994324 215.344299,435.285065 219.871521,435.528717 
z"/>
<path fill="#000000" opacity="1.000000" stroke="none" 
	d="
M542.082825,187.681335 
	C573.257446,188.630264 603.122192,194.240784 632.011353,204.489944 
	C712.525879,233.054520 771.547974,286.082489 809.621277,362.342285 
	C825.141052,393.428192 834.486084,426.485718 838.427979,461.077820 
	C845.622681,524.214905 834.961548,584.112732 805.947998,640.626221 
	C785.399841,680.650452 757.121643,714.382507 721.741150,742.168030 
	C683.883545,771.898987 641.337097,791.605774 594.317322,801.711243 
	C589.813416,802.679260 585.281860,803.717834 579.499023,803.734314 
	C581.822266,797.596069 583.780579,791.898804 585.410950,786.119263 
	C585.942261,784.235657 588.535034,784.451111 590.263367,784.093018 
	C622.376343,777.439392 652.586487,765.783386 680.512024,748.656860 
	C752.542908,704.480835 797.657532,640.861633 816.353333,558.555176 
	C821.986694,533.754700 824.051697,508.472656 822.548096,483.124969 
	C818.492981,414.765808 794.090454,354.542419 748.573730,303.188690 
	C712.908936,262.950409 669.056763,235.105774 617.938293,218.819046 
	C585.775879,208.571869 552.639160,203.827118 518.924805,205.474594 
	C435.944946,209.529465 366.601288,242.878342 310.765564,304.278259 
	C300.106598,315.999451 290.715271,328.777130 282.528748,342.365387 
	C280.382843,345.927216 278.354095,347.707062 273.780151,346.594879 
	C269.683289,345.598724 265.246185,346.001953 261.175079,345.798523 
	C259.918396,343.513550 261.387146,342.244080 262.186890,340.901581 
	C297.903381,280.943176 347.842468,237.309647 412.351257,210.570511 
	C447.150146,196.146240 483.401764,188.393082 521.137939,187.530609 
	C527.976624,187.374298 534.778564,187.597641 542.082825,187.681335 
z"/>
<path fill="#000000" opacity="1.000000" stroke="none" 
	d="
M468.634979,476.657898 
	C473.718231,476.668579 478.385315,476.784698 483.044922,476.647797 
	C486.270966,476.553009 487.333221,477.888916 487.432861,481.074005 
	C487.743988,491.017822 487.858063,491.020752 477.948029,491.023926 
	C468.120422,491.027039 458.291962,491.085541 448.465851,490.961243 
	C445.954773,490.929474 442.227448,492.166138 441.359924,489.064575 
	C440.289764,485.238617 439.475128,480.780762 442.841034,477.267944 
	C449.293274,470.534058 455.798676,463.851044 462.290314,457.154938 
	C464.847229,454.517548 467.297913,451.797668 469.063721,448.543182 
	C470.914001,445.133026 471.137177,441.755188 468.033234,439.008667 
	C464.931671,436.264221 461.554810,437.021118 458.340057,439.015656 
	C457.500122,439.536804 456.507324,440.104645 456.057098,440.913849 
	C452.875580,446.632141 449.228333,444.720520 445.087799,442.014893 
	C439.403412,438.300385 439.212250,437.926086 443.692413,432.847412 
	C452.203613,423.199188 465.285767,420.684296 475.773682,426.679993 
	C485.678467,432.342377 488.611206,444.211365 482.607086,454.424164 
	C478.760681,460.966705 472.912537,465.811310 468.065857,471.505768 
	C466.923889,472.847473 465.125519,473.747864 464.964783,475.792664 
	C465.847321,477.013214 467.115997,476.508484 468.634979,476.657898 
z"/>
<path fill="#000000" opacity="1.000000" stroke="none" 
	d="
M508.013062,475.330872 
	C507.020020,475.332092 506.509064,475.400452 506.021942,475.321533 
	C503.048859,474.839905 498.704254,476.966492 497.384949,473.614624 
	C495.870300,469.766449 495.792572,465.116241 498.236359,461.084076 
	C504.626923,450.540131 511.132477,440.062897 517.325745,429.404205 
	C519.247192,426.097534 521.511536,424.483154 525.320374,424.887665 
	C528.597168,425.235626 531.963745,424.351685 536.381775,425.860687 
	C529.570435,437.574036 522.908630,449.030182 516.055847,460.814850 
	C520.381653,462.297485 522.714600,461.984497 522.738586,457.186005 
	C522.749207,455.061798 521.463562,451.795074 524.435120,451.066772 
	C528.424744,450.088959 532.776367,449.863800 536.748779,451.157471 
	C538.607117,451.762726 537.952393,454.402863 537.950745,456.181610 
	C537.947998,459.208191 537.981201,462.008759 542.249146,461.782501 
	C544.033081,461.687927 545.045288,462.807098 545.093811,464.570343 
	C545.167114,467.231873 545.156372,469.897736 545.099670,472.560028 
	C545.072815,473.823334 544.465210,475.103027 543.139282,475.054779 
	C536.898254,474.827667 538.236633,479.264343 537.973999,482.935974 
	C537.785461,485.571747 539.455688,489.313904 535.963928,490.465179 
	C532.224365,491.698242 528.020752,491.619141 524.160645,490.364960 
	C522.221069,489.734741 522.778259,487.552765 522.723755,485.949249 
	C522.362244,475.327820 522.375000,475.327301 511.505707,475.326508 
	C510.505859,475.326447 509.505981,475.328766 508.013062,475.330872 
z"/>
<path fill="#000000" opacity="1.000000" stroke="none" 
	d="
M660.550110,427.305634 
	C661.103394,434.560425 659.075928,440.658691 655.938293,446.736481 
	C649.378113,459.443909 643.137756,472.328247 637.191284,485.334351 
	C635.113647,489.878571 632.318359,491.664551 627.558228,491.069122 
	C624.633423,490.703217 621.580383,491.612915 617.774292,489.848999 
	C625.697876,473.094238 633.592346,456.400909 641.645996,439.370850 
	C637.374817,437.671112 633.416748,438.345337 629.572754,438.642731 
	C627.085632,438.835175 627.278259,441.197601 627.368408,442.979370 
	C627.525024,446.072876 625.976196,447.172089 623.146240,447.075195 
	C622.647949,447.058167 622.148071,447.088013 621.648926,447.098145 
	C612.750549,447.278625 612.750549,447.278687 612.728394,438.592163 
	C612.693420,424.885376 612.693420,424.884247 626.374634,424.885162 
	C635.860046,424.885773 645.345886,424.844238 654.830566,424.929382 
	C656.852478,424.947510 659.315674,424.179657 660.550110,427.305634 
z"/>
<path fill="#000000" opacity="1.000000" stroke="none" 
	d="
M596.441650,435.368835 
	C587.638184,454.616699 578.957275,473.503601 570.353638,492.425568 
	C565.957886,502.092987 564.260498,502.973480 553.463135,500.548370 
	C552.354248,498.395721 553.915405,496.732025 554.690186,495.025726 
	C565.553894,471.101166 576.499207,447.213806 587.385376,423.299438 
	C591.531067,414.192291 593.832825,413.119354 604.852783,416.095825 
	C602.799805,422.741119 599.164001,428.675598 596.441650,435.368835 
z"/>
<path fill="#000000" opacity="1.000000" stroke="none" 
	d="
M645.448120,527.941650 
	C652.722107,528.040283 659.551941,527.435486 666.353333,528.577454 
	C674.361572,529.922058 677.919983,532.645569 679.361267,538.934998 
	C681.213440,547.017395 679.116028,552.801331 672.745300,557.217529 
	C672.348755,557.492371 672.007324,557.846619 671.372620,558.395325 
	C673.672119,564.214478 678.870972,568.330811 681.274414,574.129578 
	C674.657654,576.608459 671.773132,575.760620 668.047058,570.484314 
	C666.221191,567.898743 664.257324,565.408081 662.492432,562.782654 
	C660.275330,559.484314 657.079407,559.014832 653.670654,559.846252 
	C650.158325,560.703003 651.531555,563.839111 651.295654,566.136597 
	C651.143250,567.621277 651.157532,569.140198 651.267883,570.631165 
	C651.524231,574.094788 649.954041,575.292847 646.547791,575.320312 
	C642.946716,575.349304 641.924316,573.698242 641.943481,570.451111 
	C642.017273,557.954529 641.965454,545.457153 642.006775,532.960266 
	C642.014038,530.774048 642.062805,528.479004 645.448120,527.941650 
M651.318115,539.038757 
	C651.316162,542.196167 651.305969,545.353638 651.315491,548.511047 
	C651.320496,550.182312 651.846130,551.551819 653.789551,551.568237 
	C657.925293,551.603149 662.114990,552.189331 666.136292,550.678589 
	C670.817871,548.919678 672.351257,542.347656 668.946838,538.712585 
	C665.980957,535.545715 655.088074,535.218994 651.318115,539.038757 
z"/>
<path fill="#000000" opacity="1.000000" stroke="none" 
	d="
M597.603271,575.085205 
	C583.598022,570.814514 577.783081,562.381470 578.677063,548.176453 
	C579.339478,537.650085 587.662903,529.187317 599.373108,527.133850 
	C613.518982,524.653320 626.250854,534.738037 627.845093,549.685913 
	C629.275513,563.098816 618.040955,575.215820 604.006409,575.361206 
	C602.015808,575.381836 600.023438,575.236450 597.603271,575.085205 
M595.132446,537.495972 
	C593.970215,538.433960 592.678894,539.251221 591.668091,540.330933 
	C587.237305,545.064087 586.299866,552.248657 589.193298,558.465027 
	C591.856873,564.187561 597.540466,567.397705 604.276001,566.983887 
	C610.662781,566.591492 615.777527,562.576904 617.849243,556.208435 
	C619.909241,549.875854 618.352295,544.218628 613.727051,539.715698 
	C608.532593,534.658630 602.357849,533.899536 595.132446,537.495972 
z"/>
<path fill="#000000" opacity="1.000000" stroke="none" 
	d="
M517.005066,546.705811 
	C514.710327,557.385071 510.179382,561.116089 499.647125,561.372009 
	C499.148071,561.384094 498.648804,561.385376 498.149628,561.392822 
	C488.635345,561.533630 488.975006,560.203796 489.119019,570.086853 
	C489.168304,573.467285 488.306488,575.342102 484.380554,575.330872 
	C480.291656,575.319214 479.811432,573.083313 479.826416,569.885010 
	C479.883362,557.737732 479.949066,545.588989 479.804871,533.443176 
	C479.757202,529.429688 481.134430,527.601501 485.306122,527.843689 
	C490.610168,528.151550 495.934235,527.578857 501.244904,528.412781 
	C512.764343,530.221619 516.462830,534.317749 517.005066,546.705811 
M506.635803,540.037292 
	C502.370728,535.194580 496.688538,536.386353 491.285919,536.481018 
	C490.191528,536.500122 489.348236,537.298645 489.327301,538.396423 
	C489.244965,542.712524 489.262299,547.031128 489.292755,551.348450 
	C489.298920,552.220093 489.750641,553.124756 490.622894,553.254517 
	C495.435394,553.970581 500.440796,554.500854 504.605988,551.555908 
	C508.337158,548.917847 508.360962,544.815735 506.635803,540.037292 
z"/>
<path fill="#000000" opacity="1.000000" stroke="none" 
	d="
M373.940552,566.497803 
	C376.339081,562.044312 378.984253,561.068420 383.130219,564.238037 
	C386.675751,566.948547 391.090088,567.477539 395.527313,566.717590 
	C397.841553,566.321167 399.555054,565.124817 399.878845,562.595276 
	C400.200043,560.085876 399.009827,558.326599 396.733704,557.546997 
	C393.124237,556.310791 389.406891,555.392700 385.780151,554.203003 
	C378.138062,551.696045 374.423737,546.853333 374.811127,540.077759 
	C375.195801,533.348633 379.484894,528.945007 387.329620,527.312134 
	C393.678619,525.990601 399.522644,527.625732 405.076508,530.589539 
	C406.876129,531.549927 408.720581,532.715759 407.002808,535.216003 
	C405.523682,537.368896 404.417633,540.071655 400.835358,538.023010 
	C397.482697,536.105591 393.804993,534.880554 389.855774,535.506409 
	C387.341675,535.904785 384.790405,536.729736 384.455505,539.795532 
	C384.128632,542.787598 386.098297,544.346741 388.677399,545.177307 
	C392.628937,546.449707 396.685486,547.430115 400.562408,548.892639 
	C407.251984,551.416138 410.120392,556.011780 409.592896,562.716309 
	C409.128143,568.622864 405.041687,573.655823 398.788422,574.879883 
	C390.683685,576.466187 382.879913,575.397949 375.982117,570.362915 
	C374.782684,569.487427 373.417145,568.673645 373.940552,566.497803 
z"/>
<path fill="#000000" opacity="1.000000" stroke="none" 
	d="
M435.285950,574.224609 
	C426.163116,570.362061 423.469147,562.952148 423.172729,554.308411 
	C422.927521,547.158325 423.113617,539.994141 423.060638,532.836548 
	C423.037598,529.723450 423.951385,527.825684 427.600037,527.807495 
	C431.448364,527.788269 432.398071,529.630127 432.332214,533.077332 
	C432.192322,540.399048 432.168213,547.729187 432.357727,555.049133 
	C432.549469,562.455078 436.685974,566.833191 443.099823,566.864868 
	C448.526733,566.891663 452.194305,564.098511 453.667755,558.796570 
	C455.446350,552.396790 454.072113,545.884949 454.318359,539.430176 
	C454.406921,537.108154 454.220795,534.776550 454.189117,532.448853 
	C454.143127,529.068909 455.847931,527.769287 459.184387,527.841003 
	C462.565765,527.913757 463.374207,529.688965 463.337524,532.646423 
	C463.250854,539.637024 463.334747,546.629578 463.304962,553.621155 
	C463.234039,570.282227 451.824860,578.834900 435.285950,574.224609 
z"/>
<path fill="#000000" opacity="1.000000" stroke="none" 
	d="
M552.625366,561.281921 
	C551.673767,561.328613 551.172852,561.322937 550.676331,561.367371 
	C547.378174,561.662842 543.585876,560.254578 540.877930,562.052612 
	C537.708984,564.156799 539.780945,568.221802 539.435059,571.396729 
	C539.099609,574.475586 537.474426,575.265503 534.768799,575.240723 
	C532.178223,575.216919 530.675049,574.286133 530.682495,571.462463 
	C530.717285,558.150696 530.718933,544.838684 530.710022,531.526794 
	C530.708313,528.992004 532.044006,527.875793 534.432373,527.916321 
	C540.410889,528.017700 546.394287,527.506104 552.364624,528.473328 
	C562.773621,530.159485 567.095886,534.483093 567.358521,543.800110 
	C567.659302,554.467285 563.928589,559.026611 552.625366,561.281921 
M541.056335,536.497437 
	C537.881348,541.517029 539.724487,546.942566 539.858948,552.217346 
	C539.869690,552.639282 540.752563,553.356628 541.273132,553.398376 
	C546.062317,553.781616 550.997437,554.457581 555.268494,551.576660 
	C557.943909,549.771973 558.743042,546.721680 558.430359,543.640076 
	C558.106812,540.451172 556.414246,538.187927 553.111572,537.168335 
	C549.357727,536.009521 545.565613,536.351624 541.056335,536.497437 
z"/>
<path fill="#000000" opacity="1.000000" stroke="none" 
	d="
M704.668213,541.313660 
	C705.104431,537.340088 703.468750,536.001343 700.058044,536.280701 
	C698.242126,536.429504 696.400696,536.232666 694.574097,536.293762 
	C691.819031,536.385925 690.741333,535.079529 690.711975,532.372131 
	C690.681641,529.568420 691.556274,527.894287 694.630676,527.903381 
	C704.273682,527.931824 713.916931,527.939453 723.559937,527.919922 
	C726.733643,527.913452 727.334473,529.771973 727.344299,532.481812 
	C727.354370,535.286987 726.093018,536.154602 723.432739,536.336304 
	C713.336548,537.025879 713.340088,537.099792 713.334106,547.516602 
	C713.329956,554.832397 713.301025,562.148438 713.342773,569.463989 
	C713.360596,572.582275 713.643494,575.428406 708.929199,575.335510 
	C704.169128,575.241699 704.687378,572.195496 704.682800,569.206909 
	C704.668762,560.062134 704.672668,550.917358 704.668213,541.313660 
z"/>
</svg>