<?xml version="1.0" standalone="no"?>
<!DOCTYPE svg PUBLIC "-//W3C//DTD SVG 20010904//EN"
 "http://www.w3.org/TR/2001/REC-SVG-20010904/DTD/svg10.dtd">
<svg version="1.0" xmlns="http://www.w3.org/2000/svg"
 width="422.000000pt" height="591.000000pt" viewBox="0 0 422.000000 591.000000"
 preserveAspectRatio="xMidYMid meet">

<g transform="translate(0.000000,591.000000) scale(0.100000,-0.100000)"
fill="#000000" stroke="none">
<path d="M2997 4804 c-3 -22 -9 -64 -12 -95 l-6 -56 60 -22 c132 -48 250 -173
311 -332 16 -43 30 -81 30 -84 0 -3 -46 -5 -102 -5 -145 -1 -212 -33 -261
-125 -21 -39 -22 -50 -22 -405 l0 -366 26 -49 c15 -30 42 -62 68 -80 41 -29
48 -30 169 -35 l127 -5 3 -755 c2 -701 1 -756 -15 -767 -10 -8 -50 -13 -103
-13 -53 0 -93 5 -103 13 -15 11 -17 64 -19 607 -3 595 -3 595 -25 637 -33 61
-88 110 -150 133 -46 17 -78 20 -218 20 l-165 0 0 433 c0 492 -1 498 -75 572
-78 78 -54 76 -730 73 -554 -3 -603 -4 -636 -21 -51 -25 -99 -74 -123 -127
-21 -45 -21 -49 -24 -1357 l-2 -1313 556 0 556 0 -60 64 c-69 74 -107 127
-168 234 l-43 75 -88 1 c-97 1 -120 10 -209 77 -64 47 -142 161 -182 266 -83
215 -102 481 -49 684 44 172 103 302 205 455 67 100 222 256 320 323 61 41
183 104 189 97 2 -2 -4 -48 -13 -102 -12 -76 -15 -140 -11 -274 6 -191 16
-246 101 -572 75 -291 90 -417 62 -549 -21 -95 -109 -259 -140 -259 -21 0
-119 145 -167 245 -93 195 -133 381 -132 625 0 150 7 218 38 370 3 14 -1 8
-10 -14 -8 -21 -27 -93 -42 -160 -24 -110 -27 -140 -27 -331 -1 -229 8 -294
65 -470 79 -246 212 -433 489 -682 l114 -103 118 0 118 0 0 755 0 755 154 0
c113 0 157 -3 163 -12 4 -7 10 -281 13 -608 5 -586 5 -596 27 -635 33 -62 103
-121 164 -139 69 -21 248 -21 316 -1 78 23 127 64 162 137 l31 63 1 1215 c1
1075 -1 1226 -15 1307 -48 272 -155 474 -316 598 -70 54 -188 112 -246 121
l-42 6 -5 -38z m343 -1063 c14 -10 35 -33 48 -51 20 -30 22 -45 22 -162 0
-107 -3 -135 -19 -166 -52 -100 -207 -99 -255 2 -21 46 -23 274 -2 314 43 83
137 112 206 63z"/>
<path d="M890 910 l0 -140 905 0 905 0 0 140 0 140 -905 0 -905 0 0 -140z"/>
</g>
</svg>
