<?xml version="1.0" standalone="no"?>
<!DOCTYPE svg PUBLIC "-//W3C//DTD SVG 20010904//EN"
 "http://www.w3.org/TR/2001/REC-SVG-20010904/DTD/svg10.dtd">
<svg version="1.0" xmlns="http://www.w3.org/2000/svg"
 width="277.000000pt" height="144.000000pt" viewBox="0 0 277.000000 144.000000"
 preserveAspectRatio="xMidYMid meet">

<g transform="translate(0.000000,144.000000) scale(0.100000,-0.100000)"
fill="#000000" stroke="none">
<path d="M1668 1379 c-27 -22 -38 -39 -38 -58 l0 -28 -118 -6 c-173 -10 -320
-41 -388 -84 -11 -7 -24 -10 -27 -6 -14 13 -7 110 8 123 23 19 18 40 -9 40
-45 0 -56 -23 -56 -116 l0 -85 -52 -49 c-31 -29 -63 -49 -76 -50 -13 0 -39
-16 -59 -35 -20 -19 -41 -35 -47 -35 -6 0 -30 -23 -54 -50 -42 -48 -43 -53
-41 -108 l3 -57 -60 -2 c-99 -5 -226 -23 -254 -38 -34 -18 -40 -32 -40 -104
l0 -58 -47 -31 c-54 -36 -75 -48 -100 -61 -21 -10 -29 -49 -14 -64 6 -6 11
-23 11 -38 0 -21 -5 -28 -23 -31 -20 -3 -22 -7 -19 -63 1 -33 5 -70 7 -82 6
-25 50 -43 105 -43 68 0 94 -10 118 -47 12 -20 21 -37 19 -40 -2 -2 -24 -7
-48 -11 l-44 -8 70 -7 c139 -14 907 -28 1215 -23 725 14 859 17 945 22 l90 6
-3 54 c-3 34 0 54 7 54 6 0 11 8 11 19 0 10 7 24 15 31 13 11 15 44 15 204
l-1 191 -218 220 c-120 121 -258 261 -308 312 l-90 92 -67 5 c-57 4 -71 9 -88
31 -19 24 -24 25 -129 25 -74 0 -109 4 -109 11 0 6 13 27 30 45 28 33 32 64 6
64 -6 -1 -28 -14 -48 -31z m52 3 c0 -5 -11 -19 -25 -32 -24 -22 -25 -29 -25
-137 0 -94 -3 -113 -15 -113 -12 0 -15 20 -15 116 0 114 0 116 29 145 29 28
51 37 51 21z m-623 -50 c-13 -14 -17 -38 -17 -90 0 -96 -18 -92 -22 5 -3 79 6
103 39 103 14 0 14 -2 0 -18z m517 -143 c-10 -11 -37 -32 -61 -47 -62 -39 -53
-50 12 -13 l55 31 0 -24 c0 -14 -5 -28 -10 -31 -6 -3 -19 -27 -31 -52 -20 -44
-21 -55 -13 -331 l7 -285 -104 6 c-94 6 -105 9 -119 29 -8 13 -25 32 -37 44
-13 12 -23 26 -23 33 0 6 -9 16 -20 23 -26 17 -25 26 3 31 12 2 -2 5 -30 6
-55 1 -76 21 -23 21 19 0 30 5 30 14 0 8 10 17 23 19 12 2 -4 5 -35 6 -60 1
-83 21 -25 21 17 0 39 4 47 10 12 7 11 10 -5 16 -44 17 -46 46 -2 44 17 -1 44
-2 58 -1 29 1 32 9 45 130 l7 63 -269 -5 c-148 -3 -278 -7 -288 -9 -25 -4 -32
18 -9 30 10 6 140 13 290 16 205 5 281 10 307 21 20 8 60 15 90 15 64 0 80 15
45 43 -23 18 -38 19 -275 15 -167 -2 -250 0 -248 7 4 10 86 65 98 65 3 0 6 -6
6 -14 0 -9 12 -3 32 16 73 68 171 98 348 107 l135 6 3 -28 c2 -17 -4 -37 -14
-48z m302 49 c15 -29 17 -79 18 -420 1 -246 -3 -391 -9 -397 -18 -18 -65 -25
-65 -10 0 11 -22 14 -93 14 -50 1 -108 4 -127 8 l-35 7 6 267 c4 148 7 292 8
321 1 51 1 52 32 52 27 0 30 -2 19 -15 -9 -11 -9 -15 -1 -15 8 0 11 -81 11
-301 -1 -166 1 -303 3 -305 2 -2 7 141 10 318 5 209 3 326 -3 332 -6 6 -10 29
-10 53 0 42 0 42 73 81 43 24 87 40 109 41 33 1 40 -3 54 -31z m-196 13 c0 -5
-7 -12 -16 -15 -22 -9 -24 -8 -24 9 0 8 9 15 20 15 11 0 20 -4 20 -9z m720
-428 c69 -67 149 -144 178 -171 l52 -50 0 -171 0 -171 -22 9 c-36 14 -406 167
-483 200 l-70 30 4 53 c1 29 4 54 5 54 0 1 66 -29 145 -67 79 -38 146 -68 147
-66 2 2 -64 38 -146 81 l-150 77 0 55 c0 30 4 54 9 54 5 0 55 -25 112 -55 56
-30 104 -54 105 -52 2 1 -46 32 -106 67 l-110 65 0 63 c0 48 3 61 13 56 6 -4
41 -26 77 -49 86 -55 90 -57 90 -52 0 2 -42 34 -93 71 l-92 66 3 45 4 44 26
-16 27 -15 -28 26 c-21 19 -27 34 -25 55 3 29 5 28 122 -80 65 -60 122 -109
125 -109 3 1 -51 56 -122 123 -70 67 -127 129 -127 137 0 8 46 -30 103 -86 56
-55 158 -154 227 -221z m-1384 210 c-4 -4 14 -13 41 -19 44 -11 35 -12 -96
-13 -143 -1 -144 -1 -126 19 15 17 31 20 103 20 47 0 82 -3 78 -7z m-270 -118
c4 -9 3 -45 -1 -80 -5 -49 -10 -65 -22 -65 -13 0 -15 10 -9 65 4 41 3 65 -3
65 -6 0 -8 7 -5 15 8 19 33 19 40 0z m274 6 c0 -28 -33 -150 -40 -146 -5 3 -2
29 6 58 7 28 14 62 14 75 0 12 5 22 10 22 6 0 10 -4 10 -9z m266 -37 c-3 -26
-6 -59 -6 -75 l0 -28 -136 -3 c-131 -3 -135 -2 -130 17 3 11 11 46 18 78 l12
57 124 0 125 0 -7 -46z m-331 4 c-4 -18 -11 -49 -16 -70 l-9 -36 -75 -7 c-101
-10 -106 -7 -99 52 11 101 2 93 110 93 l96 0 -7 -32z m-255 -30 c0 -21 -3 -29
-10 -22 -5 5 -7 19 -4 32 9 31 14 27 14 -10z m35 -123 c14 -13 25 -29 25 -35
0 -17 -42 -11 -56 8 -7 9 -14 12 -14 5 0 -6 4 -14 8 -17 5 -3 7 -48 5 -100 -2
-59 1 -96 7 -96 6 0 10 37 10 90 l0 90 26 0 c14 0 32 6 40 14 8 8 44 17 86 20
263 22 271 24 75 23 -133 -1 -190 2 -199 11 -9 9 36 12 204 12 188 0 217 -2
222 -16 11 -27 7 -33 -26 -36 -32 -3 -33 -5 -36 -51 l-3 -47 -38 6 c-54 9
-141 -12 -195 -46 -39 -25 -50 -28 -71 -18 -19 9 -25 20 -28 57 -2 30 -4 20
-5 -32 -2 -71 -4 -78 -24 -86 -13 -5 -26 -7 -30 -4 -5 2 -8 -23 -8 -56 0 -114
-12 -121 -230 -121 -121 0 -162 3 -165 13 -3 7 3 95 13 195 13 129 23 187 34
198 19 20 151 41 261 43 81 1 90 -1 112 -24z m430 -155 c91 -39 166 -133 181
-227 7 -48 -4 -173 -15 -173 -5 0 -10 33 -13 73 -11 169 -132 287 -253 247
-50 -17 -101 -64 -115 -106 -12 -35 -12 -35 -63 -30 -29 3 -73 5 -99 5 -27 1
-48 6 -48 11 0 6 31 10 73 10 80 0 96 8 116 62 l10 27 -65 6 c-41 5 -63 12
-61 19 7 21 100 80 146 93 57 16 147 8 206 -17z m1005 -144 c58 -24 184 -76
280 -116 96 -40 177 -74 179 -76 30 -28 -111 25 -516 193 -35 14 -63 30 -63
35 0 13 10 10 120 -36z m-1880 9 c0 -25 -6 -28 -55 -28 -59 0 -65 3 -65 28 0
24 3 25 60 25 57 0 60 -1 60 -25z m590 -5 l0 -30 -75 0 -75 0 0 30 0 30 75 0
75 0 0 -30z m739 -23 c106 -8 156 -16 159 -24 4 -15 -69 -17 -281 -6 -124 5
-137 8 -137 25 0 22 26 22 259 5z m-491 -24 c47 -29 67 -126 37 -182 -18 -35
-71 -81 -93 -81 -11 0 -5 7 15 20 30 18 70 76 60 87 -3 2 -16 -7 -30 -21 -60
-60 -151 -2 -133 84 3 18 1 30 -5 30 -23 0 -2 46 31 68 37 25 74 23 118 -5z
m-867 -3 c11 0 19 -4 19 -10 0 -5 -22 -10 -50 -10 -39 0 -50 3 -50 16 0 13 7
15 31 10 17 -3 40 -6 50 -6z m694 -52 c6 -5 5 -15 -3 -28 -6 -11 -12 -40 -12
-65 0 -44 -2 -47 -37 -62 -64 -27 -697 -22 -740 5 -6 4 -14 37 -17 75 l-8 67
52 0 c37 0 59 -6 77 -20 22 -17 40 -20 132 -19 58 0 143 4 188 7 72 6 86 11
110 34 27 27 27 27 137 21 61 -3 115 -10 121 -15z m586 12 c20 0 33 -8 44 -27
13 -23 15 -24 10 -5 -4 15 -2 22 7 22 38 0 184 -22 191 -29 10 -10 57 -2 57
10 0 19 16 7 38 -27 17 -27 22 -47 21 -86 l-3 -51 -160 8 c-89 4 -177 8 -196
9 -19 1 -72 3 -118 4 -82 2 -83 2 -76 24 4 13 7 54 8 92 l0 69 75 -7 c41 -3
87 -6 102 -6z m733 -16 c26 -9 45 -18 43 -21 -7 -6 -97 18 -103 28 -8 13 6 11
60 -7z m-998 -39 c19 -46 17 -83 -7 -125 -20 -34 -20 -35 -12 -5 10 40 10 115
0 143 -13 36 3 25 19 -13z m703 8 c0 -10 -9 -43 -19 -73 l-19 -55 6 55 c3 30
7 57 9 59 2 2 -1 10 -7 18 -9 10 -7 13 10 13 14 0 21 -6 20 -17z m109 -63 c16
-32 8 -118 -13 -139 -26 -26 -55 18 -55 81 0 84 37 116 68 58z m176 14 c8 -22
8 -54 -1 -54 -11 0 -33 51 -27 61 8 14 21 11 28 -7z m-60 -20 c31 -30 16 -144
-19 -144 -34 0 -48 97 -19 138 18 26 18 26 38 6z m189 -41 c25 -13 28 -18 14
-21 -9 -2 -33 2 -53 8 -27 9 -33 15 -23 21 19 12 26 11 62 -8z m-724 -38 c162
-9 297 -18 300 -20 15 -16 -34 -17 -256 -6 -320 15 -403 22 -403 32 0 12 15
11 359 -6z m668 -27 c28 -13 54 -31 56 -40 5 -16 -4 -18 -75 -18 -69 0 -79 2
-74 16 3 9 6 27 6 40 0 31 19 31 87 2z m203 -3 c0 -14 -4 -25 -10 -25 -5 0
-10 11 -10 25 0 14 5 25 10 25 6 0 10 -11 10 -25z m45 15 c8 -13 -3 -50 -15
-50 -12 0 -20 28 -14 45 7 17 20 20 29 5z m-1708 -40 l34 -30 -141 0 -141 0
18 30 c17 30 18 30 106 30 85 0 91 -1 124 -30z m613 11 c0 -5 3 -16 6 -25 5
-14 -11 -16 -137 -16 l-142 0 23 25 c22 24 29 25 137 25 62 0 113 -4 113 -9z
m-915 -32 c17 -6 15 -8 -11 -8 -16 -1 -39 6 -50 14 -18 14 -17 15 11 9 17 -4
39 -11 50 -15z"/>
<path d="M1518 1224 c-39 -21 -35 -28 5 -8 37 19 44 24 31 24 -5 -1 -21 -8
-36 -16z"/>
<path d="M1218 1113 c34 -2 90 -2 125 0 34 2 6 3 -63 3 -69 0 -97 -1 -62 -3z"/>
<path d="M1385 957 c-2 -12 -9 -61 -14 -109 -6 -49 -15 -97 -21 -107 -5 -11
-10 -69 -10 -130 0 -130 1 -131 108 -131 l70 0 7 236 c4 131 3 239 -1 244 -5
4 -37 10 -71 14 -59 5 -63 4 -68 -17z m120 -7 c4 -6 -6 -7 -27 -3 -44 8 -48
13 -10 13 17 0 34 -4 37 -10z m-8 -28 c9 -6 12 -44 9 -142 -2 -74 -5 -170 -5
-212 l-1 -78 -54 0 c-85 0 -86 1 -85 84 1 57 3 64 9 36 l7 -35 2 33 c1 27 5
32 25 32 24 0 76 34 76 51 0 5 -9 9 -20 9 -19 0 -20 7 -20 115 0 113 0 115 23
115 12 0 28 -4 34 -8z m-67 -207 c0 -16 6 -25 15 -25 8 0 15 -4 15 -8 0 -12
-47 -32 -75 -32 -23 0 -25 4 -25 45 0 45 0 45 35 45 31 0 35 -3 35 -25z"/>
<path d="M1320 637 l5 -92 3 84 c2 46 -1 88 -5 92 -4 5 -6 -33 -3 -84z"/>
<path d="M1731 1138 l1 -53 10 43 c8 38 12 42 39 42 16 0 29 -3 29 -7 0 -23
-27 -73 -44 -82 -17 -8 -8 -10 39 -8 l60 2 0 55 0 55 -67 3 -68 3 1 -53z"/>
<path d="M1755 922 c-3 -3 -5 -27 -5 -54 0 -36 4 -48 15 -48 8 0 15 -4 15 -10
0 -5 -7 -10 -15 -10 -11 0 -15 -11 -15 -39 0 -41 11 -51 53 -51 21 0 22 4 21
102 l-1 103 -31 6 c-17 3 -34 4 -37 1z"/>
<path d="M1632 775 c-1 -33 -5 -117 -9 -186 -6 -125 -6 -127 16 -134 29 -9 39
2 18 18 -14 10 -17 38 -20 187 -1 96 -4 148 -5 115z"/>
<path d="M1864 530 c0 -52 1 -74 3 -47 2 26 2 68 0 95 -2 26 -3 4 -3 -48z"/>
<path d="M649 734 c35 -8 66 -12 68 -10 5 5 -92 26 -115 25 -9 -1 12 -7 47
-15z"/>
<path d="M512 718 c7 -20 68 -23 68 -4 0 12 -10 16 -36 16 -24 0 -34 -4 -32
-12z"/>
<path d="M405 668 c-8 -25 -34 -321 -29 -329 3 -5 72 -9 153 -9 114 0 151 3
160 14 11 13 33 313 24 329 -2 4 -72 7 -154 7 -111 0 -151 -3 -154 -12z m102
-103 c2 -6 -18 -10 -47 -10 -34 0 -50 4 -50 13 0 16 92 13 97 -3z m131 -181
c54 -15 12 -24 -113 -24 -113 0 -135 2 -135 15 0 12 19 15 113 15 61 0 122 -3
135 -6z"/>
<path d="M1020 547 c-19 -7 -44 -18 -55 -25 -30 -17 4 -16 48 3 56 23 143 19
206 -10 34 -16 49 -20 41 -11 -18 23 -116 56 -163 56 -23 -1 -58 -7 -77 -13z"/>
<path d="M260 445 c0 -8 7 -15 15 -15 8 0 15 7 15 15 0 8 -7 15 -15 15 -8 0
-15 -7 -15 -15z"/>
<path d="M834 449 c-9 -15 12 -33 30 -26 9 4 16 13 16 22 0 17 -35 21 -46 4z"/>
<path d="M1090 380 c0 -5 5 -10 10 -10 6 0 10 5 10 10 0 6 -4 10 -10 10 -5 0
-10 -4 -10 -10z"/>
<path d="M1130 376 c0 -9 5 -16 10 -16 6 0 10 4 10 9 0 6 -4 13 -10 16 -5 3
-10 -1 -10 -9z"/>
<path d="M1060 370 c0 -5 5 -10 10 -10 6 0 10 5 10 10 0 6 -4 10 -10 10 -5 0
-10 -4 -10 -10z"/>
<path d="M1160 330 c0 -5 5 -10 10 -10 6 0 10 5 10 10 0 6 -4 10 -10 10 -5 0
-10 -4 -10 -10z"/>
<path d="M1041 299 c-2 -63 74 -103 113 -60 22 24 3 39 -20 17 -8 -9 -21 -16
-28 -16 -16 0 -42 28 -55 60 l-10 25 0 -26z"/>
<path d="M1170 290 c0 -5 5 -10 10 -10 6 0 10 5 10 10 0 6 -4 10 -10 10 -5 0
-10 -4 -10 -10z"/>
<path d="M230 250 c8 -14 21 -20 45 -20 28 0 35 4 35 20 0 17 -7 20 -45 20
-43 0 -45 -1 -35 -20z"/>
<path d="M807 263 c-19 -18 -5 -33 33 -33 29 0 42 5 50 20 10 19 8 20 -33 20
-24 0 -47 -3 -50 -7z"/>
<path d="M330 243 c0 -10 52 -13 225 -13 138 0 225 4 225 10 0 5 -89 10 -225
12 -175 2 -225 0 -225 -9z"/>
<path d="M330 200 c0 -6 82 -10 225 -10 143 0 225 4 225 10 0 6 -82 10 -225
10 -143 0 -225 -4 -225 -10z"/>
<path d="M1440 250 c0 -17 1 -30 3 -31 32 -7 475 -25 480 -20 5 5 7 19 5 32
-3 24 -5 24 -153 31 -82 3 -192 9 -242 12 l-93 5 0 -29z"/>
<path d="M2075 191 c-8 -27 3 -63 18 -58 7 2 12 19 12 37 0 38 -20 52 -30 21z"/>
<path d="M2207 176 c-8 -20 4 -57 17 -53 14 5 14 59 0 64 -6 2 -14 -3 -17 -11z"/>
</g>
</svg>
