<?xml version="1.0" standalone="no"?>
<!DOCTYPE svg PUBLIC "-//W3C//DTD SVG 20010904//EN"
 "http://www.w3.org/TR/2001/REC-SVG-20010904/DTD/svg10.dtd">
<svg version="1.0" xmlns="http://www.w3.org/2000/svg"
 width="594.000000pt" height="500.000000pt" viewBox="0 0 594.000000 500.000000"
 preserveAspectRatio="xMidYMid meet">

<g transform="translate(0.000000,500.000000) scale(0.100000,-0.100000)"
fill="#000000" stroke="none">
<path d="M3412 4802 c-68 -46 -101 -89 -108 -142 l-6 -47 -162 -7 c-310 -13
-583 -66 -726 -142 -25 -13 -50 -24 -57 -24 -34 0 -28 174 7 222 40 54 11 93
-52 69 -53 -20 -62 -51 -66 -210 -4 -142 -5 -147 -30 -174 -54 -58 -158 -134
-207 -152 -27 -10 -72 -37 -100 -60 -27 -23 -63 -50 -80 -61 -16 -10 -39 -29
-50 -40 -125 -134 -125 -134 -125 -255 l0 -95 -172 -11 c-199 -13 -367 -44
-409 -75 -39 -29 -49 -65 -49 -178 l0 -97 -107 -70 c-60 -39 -122 -78 -140
-87 -56 -28 -64 -63 -37 -147 20 -59 9 -95 -30 -105 -35 -8 -39 -29 -31 -154
7 -100 10 -111 34 -133 33 -30 83 -44 197 -52 109 -8 141 -24 184 -92 17 -26
30 -50 30 -54 0 -4 -26 -13 -57 -19 -32 -7 -64 -16 -72 -20 -55 -30 1421 -67
2264 -57 554 7 1656 35 1785 45 l85 7 -4 92 c-3 78 -1 94 13 99 9 3 16 15 16
25 0 11 12 38 27 61 l27 41 4 321 c2 176 0 331 -5 343 -4 12 -255 272 -556
577 l-548 554 -67 7 c-161 14 -162 15 -209 58 l-45 41 -184 6 c-110 3 -188 10
-194 16 -8 8 2 28 33 71 55 74 63 96 42 117 -9 9 -17 16 -18 16 -1 0 -21 -13
-45 -28z m48 -18 c0 -10 -23 -48 -37 -63 -42 -42 -46 -60 -50 -224 -4 -188 -9
-227 -27 -227 -20 0 -26 48 -26 209 1 175 8 213 52 258 37 39 88 66 88 47z
m-1100 -68 c0 -3 -9 -20 -20 -39 -15 -26 -22 -59 -26 -133 -9 -167 -19 -185
-35 -62 -13 96 -3 194 22 219 17 17 59 27 59 15z m936 -180 c13 -74 -7 -100
-161 -211 -22 -16 -42 -30 -44 -32 -2 -2 -2 -6 2 -9 5 -5 49 15 152 70 l30 16
3 -36 c2 -22 -3 -42 -12 -52 -8 -10 -31 -51 -51 -92 l-37 -75 6 -440 c4 -242
9 -476 13 -519 l6 -79 -134 6 c-196 9 -241 20 -283 71 -19 22 -48 57 -65 76
-17 19 -31 40 -31 47 0 7 -16 24 -35 39 -41 31 -43 42 -13 53 18 6 11 10 -36
15 -33 5 -65 10 -73 13 -23 9 -14 23 15 24 38 1 57 10 81 41 l21 26 -72 9
c-80 9 -108 33 -39 33 40 0 111 22 111 35 0 3 -16 13 -35 21 -41 17 -53 37
-35 59 9 11 34 15 95 15 61 0 86 4 95 15 11 13 49 247 50 303 0 22 0 22 -172
22 -95 0 -325 -5 -512 -11 -205 -6 -342 -7 -347 -2 -17 17 1 41 34 46 18 4
156 11 307 17 513 19 674 29 730 45 30 9 100 20 155 25 116 10 135 16 135 40
0 22 -26 44 -69 59 -23 7 -164 11 -447 11 -392 0 -444 2 -444 20 0 8 125 93
152 103 10 3 19 0 22 -9 7 -17 21 -18 38 -1 36 35 130 99 179 121 109 50 281
81 524 95 77 4 150 9 162 10 18 1 23 -6 29 -33z m510 -4 c35 -51 39 -133 39
-830 l0 -643 -25 -19 c-29 -23 -92 -26 -109 -7 -8 10 -57 16 -181 21 -94 3
-193 11 -220 17 l-50 11 0 46 c1 280 23 1069 31 1083 7 14 21 19 49 19 41 0
46 -5 30 -30 -6 -9 -5 -19 3 -29 9 -10 13 -156 17 -550 4 -468 6 -514 14 -361
15 310 13 977 -3 1043 -23 94 -9 123 83 174 128 72 185 93 246 90 49 -2 56 -5
76 -35z m-357 19 c12 -8 12 -12 2 -25 -16 -19 -47 -21 -57 -4 -4 6 1 17 11 25
22 15 25 16 44 4z m883 -369 c67 -64 201 -194 298 -287 181 -176 369 -357 478
-459 l62 -59 0 -310 c0 -243 -3 -308 -12 -304 -7 2 -69 28 -138 57 -69 28
-188 78 -265 110 -189 78 -487 201 -559 231 l-58 24 7 90 c4 49 9 92 11 94 7
8 67 -17 237 -98 89 -43 180 -86 202 -96 22 -10 45 -20 50 -22 6 -3 -1 5 -15
16 -14 11 -28 21 -32 21 -3 0 -38 18 -77 40 -38 22 -138 74 -220 116 l-151 76
0 87 c0 47 4 92 9 100 7 11 48 -7 197 -83 103 -53 183 -91 178 -86 -13 13
-184 118 -286 177 l-78 44 0 110 c0 88 3 109 14 109 8 0 18 -5 21 -11 4 -5 17
-14 28 -20 12 -5 56 -31 97 -59 77 -51 150 -93 150 -87 0 5 -115 92 -234 177
l-89 64 6 74 c3 41 8 76 11 79 3 3 17 -4 32 -16 15 -12 30 -19 33 -15 3 3 -3
12 -13 20 -11 7 -28 26 -38 41 -21 33 -24 93 -5 93 15 0 71 -45 167 -134 97
-90 210 -189 234 -205 12 -7 -67 74 -175 180 -194 193 -267 275 -221 250 12
-6 77 -64 144 -129z m-2052 -44 c14 -9 40 -19 58 -23 80 -17 19 -25 -182 -25
-222 0 -251 5 -205 38 37 27 66 31 189 28 85 -1 122 -6 140 -18z m-498 -204
c9 -19 9 -50 1 -123 -12 -109 -25 -144 -49 -134 -14 5 -15 20 -9 108 5 76 3
108 -6 123 -10 17 -10 23 0 36 20 24 50 19 63 -10z m492 18 c5 -9 -14 -101
-39 -187 -31 -106 -49 -93 -21 15 7 30 17 77 21 104 3 27 9 55 12 62 6 15 19
18 27 6z m492 -8 c-3 -9 -11 -69 -18 -135 l-11 -119 -233 0 c-171 0 -233 3
-236 12 -2 6 6 57 19 112 13 56 25 111 28 124 l5 22 226 0 c203 0 226 -2 220
-16z m-600 -26 c-3 -13 -15 -67 -27 -120 -26 -112 -6 -100 -187 -119 -91 -9
-107 -8 -129 6 -25 17 -25 18 -18 109 4 54 13 102 23 119 l16 27 164 0 164 0
-6 -22z m-474 -120 c-16 -16 -23 38 -10 69 l12 28 4 -44 c2 -24 -1 -48 -6 -53z
m15 -153 c33 -6 107 -79 100 -99 -6 -20 -47 -18 -83 3 -42 25 -51 26 -33 4 10
-12 15 -64 19 -192 3 -98 9 -170 13 -163 5 7 11 79 14 161 l6 149 37 6 c20 3
57 15 81 25 56 25 134 37 324 51 239 18 201 30 -96 31 -257 0 -319 6 -289 24
21 13 520 18 639 7 107 -10 124 -18 119 -57 -2 -15 -15 -23 -52 -32 -26 -7
-50 -14 -53 -17 -2 -2 -7 -37 -10 -78 l-6 -73 -111 0 c-126 0 -205 -21 -310
-82 -65 -37 -77 -40 -119 -29 -20 5 -33 18 -46 47 l-18 40 -6 -88 c-6 -95 -16
-113 -68 -113 -34 0 -39 -13 -39 -108 0 -143 -25 -181 -135 -201 -63 -12 -504
-14 -545 -2 -22 6 -25 13 -28 61 -6 102 46 571 70 633 14 36 50 50 178 72 158
27 360 36 447 20z m758 -289 c154 -41 278 -147 354 -301 42 -84 53 -175 40
-312 -15 -167 -26 -161 -50 26 -19 152 -63 248 -153 337 -74 72 -142 99 -234
92 -109 -8 -220 -88 -268 -193 -14 -30 -29 -57 -34 -60 -10 -6 -332 13 -339
21 -14 14 32 24 109 24 102 0 155 13 186 47 23 25 59 113 46 113 -20 1 -161
21 -184 26 -16 3 -28 11 -28 19 0 37 201 160 288 175 60 11 202 4 267 -14z
m1880 -283 c88 -36 207 -85 265 -108 58 -24 155 -64 215 -90 61 -26 151 -64
200 -84 247 -103 152 -89 -120 17 -146 57 -191 75 -305 122 -69 29 -185 76
-258 106 -161 65 -212 91 -212 105 0 17 39 5 215 -68z m-3411 57 c20 -7 26
-16 26 -40 0 -37 -27 -50 -103 -49 -83 2 -102 10 -105 47 -3 26 1 34 20 41 31
13 130 13 162 1z m1086 -45 l0 -55 -135 0 -135 0 0 48 c0 27 3 52 7 55 3 4 64
7 135 7 l128 0 0 -55z m1406 -51 c164 -16 203 -24 204 -39 2 -24 -113 -27
-405 -12 -165 8 -308 18 -317 22 -21 8 -24 41 -5 49 20 9 360 -4 523 -20z
m-1014 -9 c49 -17 100 -62 125 -109 10 -18 18 -65 21 -112 4 -75 2 -86 -24
-134 -27 -50 -109 -130 -146 -143 -29 -10 -21 2 40 62 59 58 94 121 68 121 -7
0 -21 -10 -32 -21 -33 -37 -94 -59 -138 -49 -75 17 -116 77 -116 173 0 34 -5
68 -11 74 -37 37 71 149 147 152 11 1 41 -6 66 -14z m-1529 -30 c38 -5 57 -12
57 -21 0 -11 -19 -14 -85 -14 -76 0 -85 2 -85 18 0 25 11 34 35 28 11 -2 46
-8 78 -11z m2262 -71 c95 -6 101 -8 132 -39 32 -32 33 -33 33 -9 0 19 5 24 28
24 51 0 257 -31 308 -47 57 -17 109 -11 123 15 9 15 12 15 34 -6 48 -45 70
-107 69 -195 -1 -44 -5 -84 -9 -88 -5 -4 -71 -3 -148 2 -77 4 -284 13 -460 19
-176 5 -333 13 -348 16 -28 6 -28 6 -22 67 3 34 7 105 10 157 3 52 5 97 5 99
0 2 33 1 73 -3 39 -3 117 -8 172 -12z m-1047 -13 c68 -10 76 -18 57 -64 -8
-19 -18 -69 -21 -109 -12 -136 -18 -138 -524 -145 -389 -5 -771 7 -842 27 -20
6 -39 18 -42 28 -7 21 -36 202 -36 221 0 11 19 12 93 9 77 -4 101 -10 147 -34
l55 -29 230 2 c233 2 392 15 428 34 11 6 40 27 66 46 l46 36 145 -7 c80 -4
169 -11 198 -15z m2422 -17 c44 -15 80 -31 80 -36 0 -6 -6 -8 -14 -5 -8 3 -32
9 -53 12 -47 8 -113 35 -113 47 0 13 15 10 100 -18z m-1774 -102 c9 -31 14
-73 11 -93 -5 -38 -44 -135 -51 -128 -3 2 0 38 5 79 9 69 7 118 -8 195 -10 53
24 10 43 -53z m1243 64 c15 -18 6 -77 -25 -159 -25 -68 -29 -57 -14 46 7 47 7
74 0 88 -19 34 14 55 39 25z m531 -158 c0 -62 -17 -60 -44 5 -16 38 -17 49 -6
62 12 14 15 14 31 -1 14 -12 19 -31 19 -66z m-333 33 c26 -38 31 -114 13 -198
-18 -83 -73 -95 -105 -24 -25 55 -19 209 9 240 27 29 56 23 83 -18z m222 -27
c17 -22 21 -41 21 -100 0 -77 -8 -111 -34 -137 -35 -34 -71 4 -83 89 -7 54 2
100 27 142 24 39 42 40 69 6z m331 -64 c49 -25 51 -40 5 -40 -36 0 -115 27
-115 39 0 28 57 28 110 1z m-1525 -60 c329 -16 707 -40 743 -47 24 -4 30 -8
20 -14 -20 -13 -253 -11 -543 6 -143 8 -307 17 -365 20 -141 8 -270 25 -270
36 0 12 157 11 415 -1z m1394 -47 c77 -30 149 -83 137 -101 -5 -8 -49 -12
-137 -12 l-130 0 7 63 c10 88 18 91 123 50z m399 -24 c-4 -41 -19 -44 -32 -7
-7 19 -6 31 4 43 18 22 32 5 28 -36z m77 0 c0 -37 -3 -44 -20 -44 -15 0 -21 8
-23 33 -4 35 13 65 32 59 6 -2 11 -24 11 -48z m-3065 -39 l54 -45 -244 -3
c-133 -1 -245 -1 -247 2 -5 5 44 78 60 89 7 4 82 6 168 5 l155 -3 54 -45z
m1097 18 c8 -6 13 -23 11 -37 l-3 -26 -245 -3 -245 -2 37 36 c22 23 51 40 75
45 55 12 353 1 370 -13z m-1647 -59 c10 -6 3 -8 -23 -9 -39 0 -97 23 -97 40 0
9 92 -14 120 -31z"/>
<path d="M3107 4494 c-27 -14 -47 -27 -44 -30 6 -6 93 32 101 45 11 17 -4 13
-57 -15z"/>
<path d="M2638 4293 c17 -2 47 -2 65 0 17 2 3 4 -33 4 -36 0 -50 -2 -32 -4z"/>
<path d="M2865 4019 c-3 -13 -16 -102 -30 -196 -13 -95 -29 -181 -35 -192 -5
-11 -13 -100 -16 -198 -8 -223 -1 -251 66 -270 27 -8 84 -12 145 -11 l100 3 6
131 c11 215 19 687 13 711 -8 29 -23 33 -141 40 -101 6 -102 6 -108 -18z m210
-21 c7 -7 -2 -9 -30 -4 -22 3 -46 6 -52 6 -7 0 -13 5 -13 11 0 14 80 3 95 -13z
m-22 -51 c28 -19 30 -66 22 -432 l-7 -345 -94 0 c-102 0 -139 11 -148 44 -3
11 -6 57 -6 101 1 73 2 78 15 61 14 -19 15 -19 15 6 0 42 10 58 36 58 51 0
155 74 139 99 -3 6 -17 11 -29 11 -33 0 -36 18 -36 205 0 196 2 205 44 205 18
0 40 -6 49 -13z m-119 -339 c3 -7 7 -26 11 -42 3 -16 14 -30 25 -33 55 -15
-22 -66 -100 -67 l-45 -1 -3 64 c-2 35 -1 70 2 77 7 18 105 19 110 2z"/>
<path d="M2741 3495 c0 -49 4 -99 9 -110 6 -13 9 13 9 75 0 52 -4 102 -9 110
-7 10 -10 -13 -9 -75z"/>
<path d="M3481 4344 c0 -92 5 -93 31 -4 13 44 14 45 57 48 24 2 48 -1 53 -6
11 -11 -24 -91 -57 -126 -14 -15 -25 -29 -25 -32 0 -2 41 -4 90 -4 l90 0 0
100 c0 88 -2 100 -17 100 -10 0 -64 3 -120 7 l-103 6 1 -89z"/>
<path d="M3525 3938 c-3 -8 -5 -48 -3 -89 3 -66 6 -75 26 -84 26 -12 28 -23 5
-32 -27 -10 -33 -23 -33 -75 0 -61 24 -88 79 -88 26 0 41 5 45 16 9 24 7 342
-2 348 -5 3 -31 8 -60 12 -41 5 -53 3 -57 -8z"/>
<path d="M3291 3396 c-14 -265 -12 -280 36 -289 40 -8 51 8 26 35 -25 27 -30
65 -39 318 -3 96 -7 176 -8 178 -2 1 -8 -108 -15 -242z"/>
<path d="M3723 3240 c0 -25 2 -35 4 -22 2 12 2 32 0 45 -2 12 -4 2 -4 -23z"/>
<path d="M1470 3631 c16 -9 151 -41 172 -41 31 1 -26 21 -99 35 -89 17 -93 17
-73 6z"/>
<path d="M1295 3591 c-3 -5 5 -17 17 -25 40 -28 108 -15 95 18 -5 12 -20 16
-56 16 -27 0 -52 -4 -56 -9z"/>
<path d="M1123 3503 c-14 -3 -24 -14 -27 -31 -18 -90 -61 -560 -53 -569 22
-21 474 -28 544 -7 18 5 23 17 32 72 12 76 28 254 37 418 7 111 7 111 -17 117
-26 7 -480 7 -516 0z m146 -187 c25 -16 -4 -26 -74 -26 -73 0 -102 12 -74 32
15 10 130 5 148 -6z m264 -340 c27 -13 20 -23 -20 -30 -64 -10 -403 -7 -424 4
-24 13 -24 27 -1 34 28 8 425 1 445 -8z"/>
<path d="M2253 3284 c-69 -15 -176 -65 -155 -72 8 -2 46 6 85 19 107 35 255
33 352 -5 95 -37 109 -41 102 -29 -19 31 -233 104 -296 102 -14 -1 -54 -7 -88
-15z"/>
<path d="M853 3113 c-16 -6 -17 -25 -2 -40 15 -15 39 -5 39 17 0 19 -17 30
-37 23z"/>
<path d="M1886 3107 c-25 -18 -13 -57 18 -57 41 0 65 51 30 64 -22 9 -28 8
-48 -7z"/>
<path d="M2330 2975 c0 -10 7 -15 18 -13 21 4 19 22 -2 26 -10 2 -16 -3 -16
-13z"/>
<path d="M2408 2974 c-11 -10 3 -34 19 -34 8 0 13 7 11 17 -3 18 -20 27 -30
17z"/>
<path d="M2280 2955 c0 -8 7 -15 15 -15 8 0 15 7 15 15 0 8 -7 15 -15 15 -8 0
-15 -7 -15 -15z"/>
<path d="M2460 2885 c0 -8 7 -15 15 -15 8 0 15 7 15 15 0 8 -7 15 -15 15 -8 0
-15 -7 -15 -15z"/>
<path d="M2240 2837 c-1 -73 64 -147 129 -147 44 0 91 31 91 61 0 25 -14 24
-58 -6 -20 -14 -41 -25 -47 -25 -17 0 -70 60 -93 105 -20 38 -21 39 -22 12z"/>
<path d="M2476 2821 c-3 -5 1 -14 8 -20 16 -13 32 2 21 19 -8 12 -22 13 -29 1z"/>
<path d="M2960 2740 c0 -27 3 -51 8 -53 21 -13 474 -33 712 -33 142 1 155 3
158 19 7 33 -7 65 -30 70 -20 5 -292 20 -740 41 l-108 6 0 -50z"/>
<path d="M787 2768 c-17 -13 -17 -14 3 -35 25 -27 76 -38 113 -24 28 11 33 26
18 50 -13 20 -111 26 -134 9z"/>
<path d="M1845 2771 c-24 -5 -30 -12 -30 -31 0 -47 102 -53 146 -9 11 11 18
26 16 32 -4 14 -86 19 -132 8z"/>
<path d="M1028 2741 c-67 -7 -82 -17 -42 -28 44 -12 752 -9 765 4 7 7 -18 13
-83 17 -122 9 -567 14 -640 7z"/>
<path d="M1088 2663 c-65 -2 -118 -8 -118 -12 0 -15 301 -24 549 -18 222 6
252 9 239 23 -7 7 -513 13 -670 7z"/>
<path d="M4106 2644 c-18 -46 6 -126 32 -110 17 10 25 68 13 99 -12 30 -35 36
-45 11z"/>
<path d="M4353 2623 c-13 -5 -18 -69 -7 -97 15 -39 43 -6 44 50 0 26 -21 53
-37 47z"/>
<path d="M450 2156 c-30 -7 -74 -22 -96 -34 -43 -22 -118 -100 -126 -130 -5
-16 139 -17 2757 -17 2618 0 2762 1 2757 17 -8 32 -84 109 -131 133 -26 13
-73 28 -106 34 -89 17 -4980 14 -5055 -3z"/>
<path d="M786 1829 c-110 -27 -217 -115 -262 -214 -94 -205 -15 -434 184 -532
75 -38 77 -38 196 -38 115 0 124 2 188 32 215 101 297 347 186 556 -39 73
-102 131 -185 170 -58 27 -79 31 -167 33 -56 2 -118 -1 -140 -7z m209 -182
c132 -62 164 -264 58 -371 -109 -110 -278 -74 -341 74 -22 51 -19 147 6 195
57 112 168 152 277 102z"/>
<path d="M3239 1826 c-116 -33 -218 -118 -267 -224 -24 -50 -27 -69 -27 -162
0 -99 2 -110 33 -172 41 -83 107 -149 191 -191 56 -27 77 -32 160 -35 111 -5
190 12 289 60 l62 31 0 158 0 159 -85 0 -85 0 0 -89 c0 -49 -3 -96 -6 -105 -3
-8 -28 -23 -56 -32 -151 -50 -298 57 -298 216 0 154 139 261 285 220 25 -7 66
-26 92 -42 l47 -30 38 43 c21 24 48 56 59 71 l20 28 -47 30 c-86 54 -150 73
-259 76 -62 2 -117 -2 -146 -10z"/>
<path d="M4058 1825 c-106 -29 -206 -112 -255 -213 -26 -52 -28 -67 -28 -167
0 -103 2 -114 32 -177 70 -149 204 -228 386 -228 174 0 330 99 389 249 33 85
32 235 -4 312 -47 103 -135 181 -246 218 -71 24 -198 27 -274 6z m242 -189
c180 -119 96 -426 -117 -426 -69 0 -158 67 -191 143 -31 72 -5 203 52 256 71
66 179 78 256 27z"/>
<path d="M1430 1441 l0 -391 100 0 99 0 3 108 3 107 75 0 75 0 55 -107 55
-108 113 0 c61 0 112 3 112 7 0 4 -34 60 -76 125 l-76 119 42 36 c63 54 90
119 90 218 -1 125 -45 197 -155 247 -47 21 -65 23 -282 26 l-233 4 0 -391z
m431 206 c31 -21 49 -57 49 -100 -1 -85 -52 -117 -187 -117 l-93 0 0 121 0
121 103 -4 c75 -3 109 -8 128 -21z"/>
<path d="M2240 1440 l0 -390 310 0 310 0 0 80 0 80 -210 0 -210 0 0 75 0 75
185 0 185 0 0 80 0 80 -185 0 -185 0 0 75 0 75 205 0 205 0 0 80 0 80 -305 0
-305 0 0 -390z"/>
<path d="M4710 1440 l0 -390 95 0 95 0 2 233 3 232 175 -232 175 -232 93 0 92
-1 0 390 0 390 -95 0 -95 0 -2 -232 -3 -233 -175 232 -175 233 -92 0 -93 0 0
-390z"/>
<path d="M249 823 c41 -80 124 -134 232 -153 45 -8 790 -10 2554 -8 2426 3
2491 3 2543 22 63 23 135 84 163 137 l19 39 -2765 0 -2765 0 19 -37z"/>
<path d="M698 485 c-4 -52 12 -60 29 -15 10 26 16 30 47 30 l37 0 -3 -152 c-3
-150 -3 -153 -25 -156 -13 -2 -23 -8 -23 -13 0 -5 36 -9 80 -9 47 0 80 4 80
10 0 6 -9 10 -20 10 -32 0 -40 33 -40 175 l0 136 43 -3 c38 -3 42 -6 45 -30 6
-49 32 -34 32 17 l0 45 -139 0 -139 0 -4 -45z"/>
<path d="M1010 524 c0 -5 10 -14 23 -19 21 -10 22 -14 22 -155 0 -141 -1 -145
-22 -155 -40 -17 -25 -25 52 -25 74 0 99 12 50 24 -23 6 -25 10 -25 72 0 61 1
65 21 62 15 -2 35 -25 61 -68 45 -76 61 -90 100 -90 32 0 36 10 10 27 -10 6
-37 41 -60 77 l-41 66 29 15 c51 26 55 113 7 149 -22 16 -46 21 -127 24 -55 3
-100 0 -100 -4z m192 -41 c21 -19 24 -80 5 -107 -7 -9 -32 -20 -55 -23 l-42
-6 0 77 0 76 37 0 c20 0 45 -7 55 -17z"/>
<path d="M1330 521 c0 -5 9 -13 20 -16 22 -7 22 -4 21 -125 -2 -165 26 -210
130 -210 54 0 64 3 90 29 29 29 29 30 29 155 0 100 3 128 16 140 8 9 20 16 25
16 5 0 9 5 9 10 0 6 -27 10 -60 10 -59 0 -79 -13 -40 -25 19 -6 20 -15 20
-136 0 -152 -8 -169 -83 -169 -71 0 -77 14 -77 167 0 122 1 131 20 136 11 3
20 10 20 16 0 7 -26 11 -70 11 -38 0 -70 -4 -70 -9z"/>
<path d="M1794 516 c-53 -23 -78 -71 -83 -153 -6 -129 44 -193 153 -193 47 0
61 4 82 25 32 32 22 53 -13 25 -33 -26 -92 -26 -126 0 -48 38 -60 167 -22 240
29 57 135 56 135 -1 0 -11 7 -19 15 -19 18 0 37 34 29 53 -13 36 -110 49 -170
23z"/>
<path d="M2006 521 c-3 -4 6 -13 19 -19 25 -12 25 -12 25 -157 l0 -145 -25 -6
c-49 -12 -24 -24 50 -24 77 0 92 8 53 25 -19 8 -24 19 -26 58 -3 40 1 51 20
66 l22 19 49 -69 c55 -78 80 -99 119 -99 33 0 36 10 9 27 -10 6 -47 51 -82 99
l-63 87 72 69 c40 37 72 70 72 73 0 3 -25 5 -55 5 -59 0 -61 -1 -43 -29 10
-16 3 -29 -53 -95 l-64 -77 -3 63 c-4 78 3 105 28 113 11 3 20 11 20 16 0 11
-137 12 -144 0z"/>
<path d="M2356 522 c-3 -5 6 -14 19 -20 25 -12 25 -12 25 -157 l0 -145 -25 -6
c-59 -15 -16 -24 110 -24 l135 0 2 30 c0 17 1 35 2 42 2 25 -20 17 -31 -11 -9
-25 -18 -31 -56 -36 -78 -12 -87 -4 -87 76 0 48 4 69 13 70 6 0 33 0 60 -1 37
-1 47 2 47 14 0 13 -12 16 -60 16 l-60 0 0 65 0 65 53 0 c55 0 77 -12 77 -42
0 -10 7 -18 16 -18 12 0 14 9 12 43 l-3 42 -122 3 c-67 1 -124 -1 -127 -6z"/>
<path d="M2670 522 c0 -6 9 -14 20 -17 19 -6 20 -15 20 -157 0 -141 -1 -150
-20 -155 -43 -11 -17 -23 50 -23 40 0 70 4 70 10 0 6 -7 10 -15 10 -20 0 -35
32 -35 74 0 88 33 89 84 1 43 -73 68 -95 108 -95 31 0 38 16 11 24 -10 3 -37
36 -60 72 l-42 66 35 33 c44 41 46 82 6 126 -28 31 -31 32 -130 37 -69 3 -102
1 -102 -6z m177 -30 c18 -12 32 -55 26 -86 -7 -34 -43 -58 -80 -54 -28 3 -28
4 -31 76 l-3 72 38 0 c21 0 43 -4 50 -8z"/>
<path d="M3126 521 c-3 -4 6 -13 19 -19 25 -12 25 -12 25 -157 l0 -145 -25 -6
c-50 -12 -23 -24 55 -24 47 0 80 4 80 10 0 6 -8 10 -18 10 -29 0 -42 21 -42
71 l0 46 49 5 c65 6 97 29 112 77 16 54 -11 111 -61 128 -40 14 -186 17 -194
4z m186 -38 c12 -11 18 -30 18 -63 0 -55 -19 -78 -74 -87 l-36 -6 0 87 0 86
37 0 c20 0 45 -7 55 -17z"/>
<path d="M3430 521 c0 -5 9 -13 20 -16 19 -6 20 -15 20 -157 0 -141 -1 -150
-20 -155 -52 -14 -8 -23 109 -23 141 0 141 0 141 61 0 19 -5 29 -15 29 -8 0
-15 -6 -15 -13 0 -30 -26 -48 -73 -52 -74 -6 -77 -3 -77 76 0 59 3 69 18 70 9
1 35 2 57 3 66 2 56 21 -12 24 l-63 3 0 64 0 65 53 0 c55 0 77 -12 77 -42 0
-10 7 -18 15 -18 11 0 15 12 15 45 l0 45 -125 0 c-71 0 -125 -4 -125 -9z"/>
<path d="M3740 521 c0 -5 9 -13 20 -16 19 -6 20 -15 20 -155 0 -140 -1 -149
-20 -155 -41 -13 -18 -25 50 -25 40 0 70 4 70 10 0 6 -7 10 -15 10 -23 0 -36
36 -33 88 2 38 7 47 23 50 15 2 29 -14 59 -63 43 -74 68 -95 108 -95 31 0 38
15 11 24 -10 4 -37 36 -61 72 l-44 66 32 27 c63 53 43 138 -38 161 -46 12
-182 13 -182 1z m184 -34 c13 -10 19 -27 19 -57 0 -53 -29 -83 -77 -78 l-31 3
-3 73 -3 72 39 0 c21 0 46 -6 56 -13z"/>
<path d="M4070 520 c0 -7 9 -14 20 -17 19 -5 20 -14 20 -155 0 -141 -1 -150
-20 -155 -39 -10 -19 -23 35 -23 30 0 55 2 55 5 0 3 -9 14 -20 25 -18 18 -20
33 -20 147 0 69 3 123 8 119 4 -4 30 -71 58 -149 31 -85 58 -143 66 -145 11
-2 30 40 69 148 l54 151 3 -133 c3 -128 2 -133 -20 -150 -23 -17 -22 -18 50
-18 74 0 89 8 50 25 -22 10 -23 16 -26 152 l-3 142 28 15 c23 12 25 16 12 21
-9 3 -36 5 -60 3 l-43 -3 -49 -138 c-28 -75 -52 -135 -55 -132 -3 2 -26 64
-52 137 l-48 133 -56 3 c-37 2 -56 -1 -56 -8z"/>
<path d="M4537 523 c-4 -3 3 -11 16 -17 21 -11 22 -18 25 -159 l3 -146 -26 -7
c-49 -12 -24 -24 50 -24 77 0 92 8 53 25 -22 10 -23 16 -26 153 l-3 142 26 12
c14 6 25 15 25 20 0 9 -134 11 -143 1z"/>
<path d="M4710 485 c0 -33 4 -45 15 -45 8 0 15 8 15 18 0 27 20 42 57 42 l33
0 0 -136 c0 -141 -8 -174 -40 -174 -11 0 -20 -4 -20 -10 0 -6 33 -10 80 -10
78 0 105 12 55 24 l-25 6 0 150 0 150 36 0 c31 0 37 -4 47 -30 22 -58 48 -26
31 38 -6 21 -10 22 -145 22 l-139 0 0 -45z"/>
<path d="M5078 514 c-28 -15 -44 -52 -39 -89 5 -37 30 -63 91 -96 60 -32 76
-54 68 -95 -2 -10 -15 -25 -30 -33 -37 -21 -79 -5 -92 34 -6 17 -11 31 -12 33
0 1 -9 0 -18 -4 -20 -8 -20 -42 -1 -68 33 -44 167 -28 195 23 30 57 -1 116
-80 150 -58 25 -85 59 -76 96 13 52 99 52 112 1 5 -21 9 -24 25 -15 25 13 24
25 -6 54 -28 29 -93 33 -137 9z"/>
</g>
</svg>
