<?xml version="1.0" standalone="no"?>
<!DOCTYPE svg PUBLIC "-//W3C//DTD SVG 20010904//EN"
 "http://www.w3.org/TR/2001/REC-SVG-20010904/DTD/svg10.dtd">
<svg version="1.0" xmlns="http://www.w3.org/2000/svg"
 width="838.000000pt" height="818.000000pt" viewBox="0 0 838.000000 818.000000"
 preserveAspectRatio="xMidYMid meet">

<g transform="translate(0.000000,818.000000) scale(0.100000,-0.100000)"
fill="#000000" stroke="none">
<path d="M4049 7255 c-3 -2 -95 -16 -204 -30 -986 -126 -1671 -219 -1737 -236
-63 -16 -80 -38 -87 -109 l-6 -64 -450 -112 c-446 -111 -449 -112 -370 -113
134 -2 926 18 1150 28 322 16 571 23 565 18 -5 -5 -129 -25 -650 -106 l-235
-37 -3 -76 -3 -76 -32 -6 c-18 -4 -161 -29 -319 -56 -307 -53 -391 -70 -386
-76 6 -5 939 15 1188 26 209 9 469 14 515 10 20 -2 -239 -33 -700 -84 -132
-15 -246 -29 -252 -31 -9 -3 -13 -26 -13 -68 l0 -64 -32 -6 c-18 -3 -154 -26
-303 -51 -148 -26 -277 -48 -285 -50 -24 -7 684 4 935 14 353 14 776 20 730
11 -22 -5 -114 -17 -205 -26 -91 -9 -284 -29 -430 -45 -146 -16 -298 -32 -337
-35 l-73 -7 0 -68 c0 -80 22 -69 -205 -100 -261 -35 -261 -37 0 -32 635 10
1365 16 1410 11 l50 -6 -53 -1 c-30 -1 -106 -7 -170 -12 -64 -6 -191 -14 -282
-19 -332 -19 -686 -42 -719 -47 l-34 -5 7 -56 c13 -107 40 -123 208 -123 l113
0 -3 -196 c-3 -164 -1 -203 13 -239 21 -55 59 -81 111 -76 8 1 12 35 11 109 0
89 4 117 23 166 44 115 156 203 269 212 l56 4 -38 -15 c-143 -55 -214 -181
-204 -359 7 -144 55 -240 146 -298 44 -27 48 -28 186 -28 139 0 142 0 188 30
26 16 60 50 77 76 25 41 34 70 56 182 4 22 8 23 87 20 l82 -3 6 -53 c9 -73 55
-139 127 -184 31 -19 48 -21 170 -19 118 2 143 5 181 24 55 28 134 114 156
171 21 55 25 56 250 56 l172 0 12 59 c16 82 73 191 122 236 43 39 141 89 160
83 6 -2 -10 -21 -35 -42 -105 -85 -157 -207 -158 -366 0 -148 44 -255 141
-343 70 -63 85 -67 244 -67 134 0 146 2 195 26 79 39 138 119 172 234 l16 55
95 3 94 3 37 -50 c21 -27 53 -61 73 -76 l35 -27 177 1 c159 2 181 4 210 22 70
43 132 141 164 254 l16 60 94 6 c52 4 145 7 207 8 62 0 122 6 133 11 17 10 19
22 19 148 0 75 -4 142 -8 149 -4 6 -21 13 -37 15 l-30 3 -7 180 c-7 199 -29
386 -55 461 -22 65 -79 161 -103 174 -10 5 -26 10 -35 10 -14 0 -14 -5 5 -35
12 -19 20 -45 18 -57 l-3 -23 -410 -3 c-409 -2 -410 -2 -455 20 -25 13 -50 34
-57 48 -21 42 -154 341 -181 408 -35 84 -27 97 59 98 35 0 190 -3 344 -6 317
-7 339 -11 400 -83 19 -22 35 -44 35 -49 0 -4 -44 -9 -97 -9 -54 -1 -147 -4
-208 -8 l-110 -6 85 -8 c264 -26 388 -37 414 -37 l28 0 -18 28 c-9 15 -42 57
-71 95 -88 109 -171 147 -373 170 l-115 13 -3 61 -3 62 -47 6 c-26 4 -55 9
-66 12 -17 5 -18 0 -14 -66 l4 -72 -436 7 c-492 8 -519 6 -569 -51 -51 -58
-56 -111 -82 -890 -6 -187 -13 -346 -15 -352 -2 -10 -39 -13 -138 -13 l-134 0
-6 98 c-3 53 -8 307 -12 563 l-6 466 -82 7 c-44 3 -110 6 -146 7 -138 3 -125
14 30 27 219 19 201 9 193 101 -3 42 -6 77 -7 78 -2 2 -241 12 -469 19 -109 3
-196 8 -194 10 3 4 212 23 482 44 207 16 185 -2 185 146 l0 126 73 -6 c39 -3
160 -10 267 -16 273 -15 542 -30 625 -35 39 -2 133 -7 210 -10 197 -8 215 -11
215 -40 0 -30 -7 -31 -320 -45 -220 -10 -310 -20 -189 -20 54 0 311 -13 527
-26 l112 -7 0 89 c0 168 0 168 -355 194 -154 11 -455 34 -670 50 -355 27 -604
37 -616 25z m1061 -690 c16 -8 40 -30 53 -47 28 -37 251 -479 272 -539 21 -58
8 -65 -125 -74 l-112 -7 -31 28 c-18 16 -51 47 -75 69 l-43 40 -170 0 c-167 0
-171 1 -190 23 -31 39 -39 90 -39 263 0 156 1 168 23 200 36 54 54 59 240 59
130 0 175 -3 197 -15z m-1957 -642 c-7 -2 -21 -2 -30 0 -10 3 -4 5 12 5 17 0
24 -2 18 -5z m3337 -168 c34 -18 47 -53 31 -84 -14 -25 -34 -36 -84 -45 -34
-6 -38 -10 -33 -29 3 -12 6 -48 6 -80 l0 -58 63 7 c71 7 97 -7 97 -51 0 -37
-26 -55 -78 -55 -26 -1 -236 -5 -467 -10 -454 -9 -465 -8 -465 43 1 51 36 67
150 67 l91 0 -3 63 -3 62 -69 6 c-56 5 -73 10 -88 29 -43 53 -4 129 69 131 21
1 184 5 363 8 179 4 340 8 358 9 18 1 46 -5 62 -13z m77 -550 c32 -37 31 -89
-3 -120 -23 -21 -37 -25 -90 -25 -57 0 -64 2 -88 31 -28 33 -32 58 -15 92 32
61 152 74 196 22z m-742 -10 c34 -33 34 -93 1 -124 -18 -17 -36 -22 -86 -24
-59 -1 -64 0 -92 32 -24 27 -29 39 -24 65 10 52 47 76 117 76 50 0 64 -4 84
-25z m-2947 -54 c144 -76 127 -369 -25 -407 -136 -35 -243 180 -165 332 44 86
114 114 190 75z m2045 -29 c58 -39 107 -138 107 -217 0 -63 -31 -138 -74 -182
-74 -73 -160 -67 -223 15 -38 51 -53 98 -53 172 0 135 70 230 170 230 27 0 56
-8 73 -18z"/>
<path d="M6280 6323 c0 -5 9 -19 20 -33 11 -14 20 -28 20 -32 0 -5 -64 -8
-142 -8 -78 0 -139 -2 -137 -4 7 -8 359 -39 365 -33 3 3 -11 30 -32 61 -30 46
-42 56 -65 56 -16 0 -29 -3 -29 -7z"/>
<path d="M1053 4399 c-114 -19 -224 -92 -267 -178 l-24 -46 3323 0 3323 0 -24
46 c-45 89 -152 159 -276 179 -79 12 -5979 12 -6055 -1z"/>
<path d="M1322 3580 c-100 -26 -166 -64 -237 -135 -99 -99 -145 -210 -145
-350 0 -247 166 -449 412 -499 95 -20 143 -20 233 -1 248 52 415 253 415 500
0 140 -46 252 -145 350 -73 72 -138 109 -241 135 -96 25 -197 25 -292 0z m230
-212 c56 -16 122 -79 155 -146 23 -48 28 -69 27 -132 -2 -306 -372 -397 -504
-124 -33 66 -34 178 -4 245 62 133 193 197 326 157z"/>
<path d="M4443 3585 c-102 -22 -190 -70 -264 -144 -136 -137 -179 -321 -119
-513 67 -215 300 -363 539 -344 103 8 213 40 296 85 l70 37 3 197 2 197 -109
0 -110 0 -3 -127 -3 -128 -65 -22 c-36 -12 -81 -22 -101 -23 -95 -1 -194 58
-246 147 -22 37 -28 62 -31 129 -4 72 -1 89 21 136 80 176 270 219 455 101 29
-18 54 -33 57 -33 2 0 36 39 75 86 l71 87 -45 32 c-138 98 -327 136 -493 100z"/>
<path d="M5515 3594 c-170 -36 -292 -116 -370 -245 -68 -110 -86 -279 -45
-411 144 -466 851 -474 1011 -12 102 296 -83 606 -395 663 -58 11 -161 13
-201 5z m200 -238 c51 -23 103 -74 128 -124 22 -42 29 -81 28 -152 0 -86 -42
-172 -107 -223 -208 -162 -487 61 -410 328 14 46 29 69 74 115 31 31 73 61 92
67 62 19 140 15 195 -11z"/>
<path d="M2130 3091 l0 -491 130 0 130 0 0 135 0 135 95 0 94 0 71 -135 72
-135 145 0 145 0 -14 23 c-157 243 -191 301 -178 305 31 11 101 88 126 138 33
67 44 197 24 271 -27 97 -99 175 -199 215 -53 21 -73 23 -348 26 l-293 3 0
-490z m547 263 c63 -46 81 -151 36 -212 -36 -50 -76 -62 -205 -62 l-118 0 0
151 0 151 129 -3 c112 -4 133 -7 158 -25z"/>
<path d="M3150 3090 l0 -490 395 0 396 0 -3 103 -3 102 -267 3 -268 2 0 90 0
90 235 0 235 0 0 105 0 105 -235 0 -236 0 3 88 3 87 258 3 257 2 0 100 0 100
-385 0 -385 0 0 -490z"/>
<path d="M6270 3090 l0 -490 120 0 120 0 2 290 3 289 220 -289 220 -290 112 0
113 0 0 490 0 490 -120 0 -120 0 -2 -290 -3 -289 -219 289 -218 290 -114 0
-114 0 0 -490z"/>
<path d="M786 2049 c45 -89 152 -159 276 -179 87 -14 5959 -14 6046 0 124 20
231 90 276 179 l24 46 -3323 0 -3323 0 24 -46z"/>
<path d="M3063 1500 c-79 -18 -123 -82 -123 -180 0 -113 58 -180 155 -180 61
0 99 18 103 48 l3 23 -33 -21 c-60 -36 -125 -24 -153 30 -19 37 -20 159 -1
204 26 63 115 73 139 16 10 -23 16 -26 30 -19 9 6 17 19 17 29 0 37 -74 64
-137 50z"/>
<path d="M6382 1500 c-51 -12 -72 -37 -72 -84 0 -55 20 -81 91 -117 77 -39 92
-74 51 -121 -32 -38 -112 -8 -112 42 0 22 -1 23 -24 14 -9 -3 -16 -17 -16 -29
0 -64 129 -90 189 -39 26 21 31 33 31 68 0 50 -14 66 -98 111 -67 36 -85 69
-58 109 11 18 25 26 45 26 28 0 61 -26 61 -49 0 -22 35 -7 38 16 6 38 -63 67
-126 53z"/>
<path d="M1920 1454 c0 -49 20 -58 30 -13 6 26 47 46 74 36 14 -5 16 -26 16
-142 0 -142 -8 -175 -40 -175 -11 0 -20 -4 -20 -10 0 -6 33 -10 80 -10 78 0
105 12 55 24 l-25 6 0 155 c0 141 2 155 18 155 42 0 63 -13 69 -41 3 -16 12
-29 20 -29 10 0 13 11 11 43 l-3 42 -142 3 -143 3 0 -47z"/>
<path d="M2240 1492 c0 -5 9 -12 20 -15 19 -5 20 -14 20 -157 0 -143 -1 -152
-20 -157 -43 -11 -17 -23 50 -23 67 0 93 12 50 23 -17 4 -20 14 -20 71 0 58 2
66 19 66 13 0 32 -23 60 -70 44 -73 63 -90 105 -90 28 0 35 14 11 24 -8 3 -35
36 -59 73 l-43 67 33 32 c43 40 46 89 10 131 -23 27 -28 28 -130 31 -65 2
-106 0 -106 -6z m193 -43 c39 -48 10 -115 -55 -126 l-38 -6 0 83 0 83 38 -6
c20 -4 45 -16 55 -28z"/>
<path d="M2560 1491 c0 -5 9 -11 20 -14 19 -5 20 -14 20 -127 0 -178 21 -210
136 -210 48 0 60 4 85 29 29 29 29 30 29 151 0 122 8 160 35 160 8 0 15 5 15
10 0 6 -27 10 -60 10 -58 0 -80 -12 -40 -23 19 -5 20 -14 20 -136 0 -154 -8
-171 -83 -171 -70 0 -81 20 -85 155 -4 115 5 155 33 155 8 0 15 5 15 10 0 6
-30 10 -70 10 -38 0 -70 -4 -70 -9z"/>
<path d="M3240 1492 c0 -4 10 -12 23 -17 21 -10 22 -14 22 -155 0 -141 -1
-145 -22 -155 -40 -17 -25 -25 52 -25 74 0 99 12 50 24 -23 6 -25 11 -25 60 0
40 5 57 19 70 21 19 22 18 101 -97 27 -39 57 -57 95 -57 30 0 32 11 6 27 -17
10 -108 126 -135 171 -9 15 85 128 115 137 37 12 18 25 -36 25 -50 0 -73 -12
-42 -23 18 -6 -3 -39 -69 -112 l-54 -60 2 85 c3 80 4 85 26 88 12 2 22 8 22
13 0 5 -34 9 -75 9 -41 0 -75 -3 -75 -8z"/>
<path d="M3590 1491 c0 -5 10 -11 23 -13 22 -3 22 -6 25 -155 l3 -152 -26 -7
c-59 -15 -15 -24 115 -24 l140 0 0 45 c0 33 -4 45 -15 45 -8 0 -15 -8 -15 -18
0 -32 -22 -42 -87 -42 l-64 0 3 73 3 72 63 3 c82 4 80 22 -3 22 l-66 0 3 68 3
67 36 3 c49 4 87 -12 91 -39 2 -12 9 -24 16 -27 8 -2 12 10 12 42 l0 46 -130
0 c-74 0 -130 -4 -130 -9z"/>
<path d="M3910 1493 c0 -4 10 -13 23 -18 21 -10 22 -14 22 -155 0 -141 -1
-145 -22 -155 -40 -17 -25 -25 52 -25 74 0 99 12 50 24 -23 6 -25 10 -25 71 0
57 2 65 19 65 13 0 34 -24 65 -75 41 -64 52 -75 82 -81 44 -8 55 2 28 24 -12
9 -39 44 -62 78 l-40 60 34 28 c29 23 34 33 34 70 0 33 -6 48 -26 67 -23 22
-36 24 -130 27 -57 2 -104 0 -104 -5z m167 -24 c35 -13 43 -25 43 -69 0 -44
-8 -56 -43 -69 -62 -24 -67 -19 -67 69 0 88 5 93 67 69z"/>
<path d="M4370 1493 c0 -4 10 -13 23 -18 21 -10 22 -14 22 -155 0 -141 -1
-145 -22 -155 -41 -18 -24 -25 57 -25 47 0 80 4 80 10 0 6 -8 10 -18 10 -30 0
-42 21 -42 72 l0 48 38 0 c56 0 105 30 119 74 16 46 7 88 -24 118 -22 20 -36
23 -129 26 -57 2 -104 0 -104 -5z m167 -24 c36 -13 43 -25 43 -75 0 -52 -23
-80 -72 -88 l-38 -7 0 91 c0 99 3 103 67 79z"/>
<path d="M4680 1491 c0 -5 9 -11 20 -14 19 -5 20 -14 20 -157 0 -143 -1 -152
-20 -157 -53 -14 -7 -23 115 -23 l135 0 0 45 c0 51 -13 58 -32 18 -12 -26 -19
-28 -76 -31 l-62 -3 0 76 0 75 60 0 c33 0 60 4 60 10 0 6 -27 10 -60 10 l-60
0 0 70 0 70 45 0 c47 0 85 -25 85 -55 0 -8 5 -15 10 -15 6 0 10 20 10 45 l0
45 -125 0 c-69 0 -125 -4 -125 -9z"/>
<path d="M4990 1492 c0 -4 10 -12 23 -17 21 -10 22 -14 22 -155 0 -141 -1
-145 -22 -155 -40 -17 -25 -25 52 -25 77 0 92 8 53 25 -20 9 -23 19 -26 73 -3
59 -2 62 20 62 18 0 31 -15 58 -61 41 -72 72 -99 111 -99 33 0 39 16 10 25
-17 5 -101 125 -101 144 0 4 11 13 24 19 14 6 29 26 36 47 16 49 -2 93 -46
111 -35 15 -214 20 -214 6z m198 -39 c13 -18 16 -81 4 -100 -9 -14 -56 -33
-83 -33 -17 0 -19 8 -19 81 l0 82 43 -7 c23 -4 48 -14 55 -23z"/>
<path d="M5320 1491 c0 -5 10 -11 23 -13 22 -3 22 -6 25 -155 l3 -152 -26 -7
c-45 -11 -26 -24 35 -24 33 0 60 3 60 6 0 3 -9 13 -20 22 -19 16 -21 26 -18
152 l3 135 56 -155 c35 -96 62 -156 72 -158 10 -2 29 37 68 148 l54 151 3
-133 c2 -110 0 -135 -13 -144 -26 -19 -17 -24 50 -24 67 0 81 8 43 25 -22 10
-23 14 -23 155 0 141 1 145 23 155 38 17 24 26 -35 23 l-57 -3 -49 -138 c-28
-75 -52 -135 -55 -133 -2 3 -26 65 -52 138 l-48 133 -61 3 c-35 2 -61 -1 -61
-7z"/>
<path d="M5800 1492 c0 -4 10 -12 23 -17 21 -10 22 -14 22 -155 0 -141 -1
-145 -22 -155 -40 -17 -25 -25 52 -25 74 0 99 12 50 24 l-26 7 3 152 c3 149 3
152 26 155 12 2 22 8 22 13 0 5 -34 9 -75 9 -41 0 -75 -3 -75 -8z"/>
<path d="M5980 1455 c0 -25 5 -45 10 -45 6 0 10 7 10 15 0 23 37 55 65 55 l26
0 -3 -157 c-3 -155 -3 -158 -25 -161 -13 -2 -23 -8 -23 -13 0 -5 36 -9 80 -9
47 0 80 4 80 10 0 6 -9 10 -20 10 -32 0 -40 39 -40 181 0 141 3 148 56 135 16
-4 30 -18 37 -36 16 -43 27 -37 27 15 l0 45 -140 0 -140 0 0 -45z"/>
</g>
</svg>
