<?xml version="1.0" standalone="no"?>
<!DOCTYPE svg PUBLIC "-//W3C//DTD SVG 20010904//EN"
 "http://www.w3.org/TR/2001/REC-SVG-20010904/DTD/svg10.dtd">
<svg version="1.0" xmlns="http://www.w3.org/2000/svg"
 width="542.000000pt" height="461.000000pt" viewBox="0 0 542.000000 461.000000"
 preserveAspectRatio="xMidYMid meet">

<g transform="translate(0.000000,461.000000) scale(0.100000,-0.100000)"
fill="#000000" stroke="none">
<path d="M3960 4364 c-183 -29 -271 -69 -408 -187 -112 -95 -322 -182 -512
-212 -58 -9 -153 -25 -211 -36 -58 -10 -109 -19 -112 -19 -18 0 -4 57 18 78
47 45 45 124 -4 173 -59 59 -155 42 -194 -34 -26 -51 -16 -101 29 -143 26 -25
34 -41 34 -68 l0 -35 -87 -26 c-49 -14 -142 -47 -208 -72 -302 -116 -306 -117
-455 -118 -92 0 -151 5 -185 15 -30 9 -89 15 -150 15 -113 0 -202 -23 -315
-80 -64 -32 -221 -142 -234 -164 -4 -6 -16 -11 -27 -11 -11 0 -34 -13 -50 -29
-38 -39 -40 -96 -4 -135 13 -14 29 -26 35 -26 5 0 10 -5 10 -10 0 -21 -793
-1896 -807 -1907 -12 -9 -12 -16 0 -45 30 -71 114 -128 223 -150 52 -10 54
-12 54 -44 l0 -34 585 0 585 0 0 35 c0 32 3 35 38 40 99 17 191 76 228 148 14
25 13 32 -15 90 -163 344 -850 1860 -846 1868 4 5 12 9 19 9 7 0 23 11 36 25
25 26 31 77 16 122 -7 18 1 27 51 61 143 97 264 137 392 130 47 -3 103 -13
124 -21 71 -30 189 -49 312 -49 209 0 442 52 663 149 8 4 12 -8 12 -41 l0 -46
-54 0 c-37 0 -58 -5 -67 -16 -20 -24 1 -48 45 -52 l36 -3 0 -1240 0 -1239 -45
0 c-38 0 -45 -3 -45 -20 0 -21 -38 -37 -65 -26 -13 4 -15 -30 -17 -262 l-3
-266 -100 -17 c-249 -42 -443 -118 -557 -218 -46 -41 -98 -127 -98 -163 0 -17
44 -18 1024 -18 l1024 0 -7 33 c-38 164 -287 306 -646 365 l-110 19 -5 264 -5
264 -35 0 c-29 0 -36 4 -38 23 -3 19 -9 22 -48 22 l-44 0 0 1239 0 1240 43 3
c39 3 42 5 42 33 0 30 -1 30 -57 33 l-58 3 0 64 0 63 68 6 c348 30 622 151
862 382 130 124 217 167 367 179 68 6 207 -6 219 -18 3 -2 0 -17 -6 -32 -13
-34 13 -94 48 -111 12 -6 25 -13 27 -16 3 -3 -137 -342 -311 -754 -173 -412
-350 -830 -391 -929 -41 -99 -82 -192 -91 -206 -14 -25 -14 -30 5 -65 35 -69
101 -108 236 -138 23 -5 27 -11 27 -41 l0 -35 588 2 587 3 -3 32 c-3 28 0 33
25 39 134 29 194 64 232 135 l23 44 -436 951 c-240 523 -436 955 -436 959 0 4
11 16 24 26 32 25 50 78 37 110 -18 49 -35 57 -221 108 -67 19 -186 32 -230
25z m805 -1222 c235 -513 425 -935 423 -938 -3 -2 -379 -3 -835 -2 l-831 3
389 920 c214 506 393 931 399 944 6 14 15 20 19 15 5 -5 201 -429 436 -942z
m-3378 -864 l431 -943 -831 -3 c-456 -1 -832 -1 -833 1 -5 5 790 1887 797
1887 3 0 199 -424 436 -942z"/>
</g>
</svg>
