<?xml version="1.0" standalone="no"?>
<!DOCTYPE svg PUBLIC "-//W3C//DTD SVG 20010904//EN"
 "http://www.w3.org/TR/2001/REC-SVG-20010904/DTD/svg10.dtd">
<svg version="1.0" xmlns="http://www.w3.org/2000/svg"
 width="500.000000pt" height="499.000000pt" viewBox="0 0 500.000000 499.000000"
 preserveAspectRatio="xMidYMid meet">

<g transform="translate(0.000000,499.000000) scale(0.100000,-0.100000)"
fill="#000000" stroke="none">
<path d="M3237 4729 c-88 -13 -198 -70 -267 -139 -190 -190 -198 -495 -16
-688 104 -111 219 -162 367 -162 187 0 351 96 436 257 108 201 75 430 -84 591
-74 75 -176 127 -280 142 -76 11 -76 11 -156 -1z"/>
<path d="M1614 4712 c-10 -10 -77 -94 -149 -186 -286 -369 -578 -745 -636
-819 -77 -99 -87 -141 -41 -187 l30 -30 186 0 c102 0 186 -4 186 -9 0 -4 -184
-246 -410 -537 -391 -504 -410 -530 -410 -570 0 -34 5 -47 26 -63 25 -20 39
-21 286 -21 275 0 291 -3 254 -47 -9 -10 -176 -224 -371 -476 -322 -416 -355
-462 -355 -496 0 -27 7 -44 26 -62 l26 -24 496 -5 497 -5 0 -390 0 -390 -496
-3 -496 -2 -27 -26 c-36 -37 -36 -91 0 -128 l27 -26 2207 0 2208 0 26 31 c33
38 33 79 2 116 -23 26 -31 28 -117 33 l-93 5 -22 79 c-38 134 -88 219 -189
321 -132 133 -262 195 -443 210 -182 16 -356 -42 -538 -180 -9 -6 -35 -1 -81
15 -59 22 -84 25 -193 24 -133 -1 -180 -13 -274 -68 -136 -80 -213 -191 -272
-394 -3 -10 -47 -12 -196 -10 l-193 3 -3 393 -2 392 482 1 c266 1 494 4 508 8
37 10 68 72 54 108 -11 31 -19 41 -363 481 -315 405 -371 479 -371 497 0 13
32 15 263 15 293 0 301 2 313 66 4 20 2 45 -4 57 -5 12 -191 254 -411 537
-221 283 -401 520 -401 527 0 10 43 13 184 13 169 0 185 2 209 20 34 27 45 81
23 114 -15 23 -147 196 -350 458 -50 64 -165 212 -255 330 -250 324 -245 318
-295 318 -27 0 -49 -7 -62 -18z m291 -3927 l0 -390 -230 0 -230 0 -3 380 c-1
209 0 386 3 393 3 10 55 12 232 10 l228 -3 0 -390z"/>
<path d="M523 4168 c-286 -285 -313 -315 -313 -346 0 -46 16 -71 56 -88 29
-12 39 -12 66 0 19 8 163 145 331 313 291 293 297 300 297 340 0 54 -37 93
-88 93 -34 0 -55 -19 -349 -312z"/>
<path d="M4318 3882 c-257 -257 -278 -281 -278 -313 0 -66 62 -113 118 -90 16
7 151 135 300 285 287 287 291 292 260 349 -18 34 -40 46 -83 47 -39 0 -46 -6
-317 -278z"/>
<path d="M3755 2981 c-38 -24 -308 -298 -325 -330 -15 -30 -5 -83 20 -106 11
-10 37 -18 60 -19 39 -1 45 4 206 164 91 91 170 176 175 189 14 35 -7 88 -41
106 -38 20 -59 19 -95 -4z"/>
<path d="M4134 2451 c-120 -41 -222 -133 -277 -248 -31 -65 -32 -74 -32 -188
0 -114 2 -124 32 -188 109 -231 382 -331 608 -224 127 62 209 159 246 295 23
81 24 145 3 225 -55 215 -228 348 -448 346 -49 0 -101 -7 -132 -18z"/>
<path d="M3322 1868 c-88 -87 -97 -103 -92 -153 2 -26 36 -62 65 -69 40 -10
75 11 156 96 86 89 94 103 85 154 -8 41 -39 64 -87 64 -32 0 -46 -10 -127 -92z"/>
</g>
</svg>
