<?xml version="1.0" standalone="no"?>
<!DOCTYPE svg PUBLIC "-//W3C//DTD SVG 20010904//EN"
 "http://www.w3.org/TR/2001/REC-SVG-20010904/DTD/svg10.dtd">
<svg version="1.0" xmlns="http://www.w3.org/2000/svg"
 width="534.000000pt" height="365.000000pt" viewBox="0 0 534.000000 365.000000"
 preserveAspectRatio="xMidYMid meet">

<g transform="translate(0.000000,365.000000) scale(0.100000,-0.100000)"
fill="#000000" stroke="none">
<path d="M3400 3270 c-52 -11 -80 -45 -80 -97 0 -15 16 -88 35 -162 19 -74 35
-142 35 -150 0 -16 -117 -91 -142 -91 -7 0 -51 59 -97 131 -46 72 -96 138
-110 147 -20 14 -51 17 -157 17 -119 0 -135 -2 -161 -21 -37 -28 -49 -64 -37
-111 13 -55 54 -73 166 -73 l88 0 66 -99 c36 -55 63 -104 60 -109 -3 -6 -110
-74 -237 -153 -127 -78 -233 -149 -236 -156 -3 -8 4 -24 15 -36 58 -62 83
-180 58 -276 -27 -105 -87 -175 -192 -223 l-49 -23 -1030 1 c-933 0 -1034 2
-1073 17 l-42 16 -85 -169 c-47 -94 -85 -178 -85 -189 0 -25 51 -78 81 -85 13
-3 118 -12 234 -18 164 -10 210 -16 210 -27 0 -8 -69 -41 -173 -84 -231 -94
-283 -139 -331 -286 -26 -79 -26 -97 -1 -180 24 -82 73 -152 136 -197 94 -67
60 -65 987 -65 460 0 854 3 875 7 70 12 158 62 210 118 142 156 147 366 12
536 -17 21 -30 44 -30 50 0 16 -6 17 1140 -56 160 -10 309 -14 400 -10 l146 6
212 -213 c116 -117 212 -218 212 -225 0 -9 -45 -12 -190 -12 -211 0 -252 -8
-270 -55 -18 -48 -12 -85 19 -116 l29 -29 460 0 c527 0 529 0 614 79 49 47
138 196 138 233 0 27 -29 67 -61 84 -66 34 -110 8 -167 -101 -22 -41 -47 -75
-62 -82 -14 -7 -63 -13 -115 -13 l-90 0 -233 233 c-127 127 -232 237 -232 244
0 13 4 15 122 43 208 49 410 133 610 254 202 122 192 114 211 148 32 56 62 10
-321 483 -207 254 -295 351 -379 416 -29 23 -64 62 -79 87 -122 212 -338 418
-549 524 -163 82 -394 138 -485 118z m254 -235 c131 -43 296 -135 355 -199 33
-35 15 -40 -74 -21 -38 8 -128 20 -200 26 -71 7 -132 13 -133 15 -2 1 -14 44
-27 95 -18 71 -21 95 -12 101 7 4 13 8 13 8 1 0 36 -11 78 -25z m-2087 -1587
c14 -13 76 -99 139 -193 102 -152 114 -175 114 -214 0 -36 -6 -49 -34 -77
l-34 -34 -362 0 -362 0 -35 35 c-33 33 -35 38 -31 87 4 42 11 56 34 75 31 24
45 25 396 27 47 1 89 4 93 8 4 3 -16 39 -43 80 -60 88 -69 124 -47 172 31 66
120 83 172 34z"/>
<path d="M482 2414 c-60 -17 -106 -56 -131 -108 -50 -108 -6 -226 104 -277 38
-18 84 -19 935 -19 850 0 897 1 935 19 134 62 166 232 63 332 -22 21 -56 41
-80 48 -65 17 -1769 22 -1826 5z"/>
</g>
</svg>
