<?xml version="1.0" standalone="no"?>
<!DOCTYPE svg PUBLIC "-//W3C//DTD SVG 20010904//EN"
 "http://www.w3.org/TR/2001/REC-SVG-20010904/DTD/svg10.dtd">
<svg version="1.0" xmlns="http://www.w3.org/2000/svg"
 width="1920.000000pt" height="1920.000000pt" viewBox="0 0 1920.000000 1920.000000"
 preserveAspectRatio="xMidYMid meet">

<g transform="translate(0.000000,1920.000000) scale(0.100000,-0.100000)"
fill="#000000" stroke="none">
<path d="M10825 10878 c-137 -299 -297 -649 -356 -778 -59 -129 -109 -241
-111 -249 -2 -11 20 -13 116 -13 65 1 119 2 121 4 1 2 84 183 185 403 100 220
218 477 260 570 43 94 121 264 174 380 53 115 96 213 96 217 0 4 -53 8 -119 8
l-118 0 -248 -542z"/>
<path d="M8605 11259 c-138 -18 -237 -83 -339 -221 l-27 -37 23 -14 c81 -50
180 -107 185 -107 3 0 30 26 59 59 63 69 104 91 173 91 44 0 56 -5 88 -33 31
-29 37 -41 41 -90 8 -101 -21 -140 -349 -474 l-199 -202 0 -101 0 -100 425 0
425 0 0 120 0 120 -236 0 -237 0 43 48 c24 26 87 92 140 147 197 203 253 299
252 435 0 238 -204 394 -467 359z"/>
<path d="M9726 11218 c-8 -13 -105 -173 -215 -356 l-201 -334 0 -104 0 -104
240 0 240 0 0 -145 0 -145 130 0 130 0 0 145 0 145 70 0 70 0 0 115 0 115 -70
0 -70 0 0 105 0 105 -130 0 -130 0 0 -105 0 -105 -81 0 c-73 0 -80 2 -75 17 4
10 86 150 183 313 97 162 185 310 195 328 l20 32 -146 0 c-140 0 -146 -1 -160
-22z"/>
<path d="M11480 11045 l0 -195 125 0 124 0 3 78 3 77 144 3 c80 1 147 -1 151
-5 4 -4 -96 -222 -221 -483 -126 -261 -228 -478 -229 -482 0 -5 65 -8 143 -8
l144 0 33 68 c18 37 129 264 246 505 l214 438 0 99 0 100 -440 0 -440 0 0
-195z"/>
<path d="M7250 9320 c-114 -19 -200 -91 -221 -185 -32 -145 45 -255 211 -301
176 -49 203 -59 231 -85 48 -44 36 -118 -24 -155 -51 -30 -165 -26 -242 9 -32
15 -75 40 -93 54 l-35 26 -43 -49 c-24 -27 -42 -53 -40 -58 6 -23 117 -88 189
-111 141 -45 292 -29 380 40 97 77 116 230 40 332 -29 39 -139 93 -238 117
-103 25 -159 52 -179 87 -23 39 -15 87 20 120 23 22 34 24 117 24 83 0 99 -3
161 -33 38 -18 70 -31 71 -30 1 2 16 24 34 50 18 25 30 51 26 57 -14 24 -133
74 -205 87 -83 15 -95 15 -160 4z"/>
<path d="M11201 9319 c-211 -35 -361 -218 -361 -440 0 -267 211 -456 488 -436
133 9 241 65 321 167 65 82 85 146 86 276 0 107 -1 112 -37 185 -70 142 -187
227 -341 248 -87 12 -81 12 -156 0z m227 -158 c54 -28 107 -88 138 -155 23
-51 26 -67 22 -140 -3 -66 -10 -91 -33 -135 -94 -172 -320 -214 -464 -85 -72
65 -104 136 -104 234 0 200 157 337 351 308 30 -5 70 -17 90 -27z"/>
<path d="M7937 9303 c-4 -3 -7 -128 -7 -278 0 -212 3 -284 15 -330 27 -103 89
-177 185 -224 49 -23 67 -26 161 -26 101 0 109 1 174 35 49 25 82 51 112 87
69 86 75 117 80 445 l5 287 -24 6 c-13 4 -47 5 -74 3 l-49 -3 -5 -285 c-5
-282 -5 -286 -31 -335 -36 -71 -99 -109 -182 -109 -115 1 -190 63 -214 177 -8
41 -13 147 -13 310 l0 247 -63 0 c-35 0 -67 -3 -70 -7z"/>
<path d="M8998 9305 c-5 -5 -8 -199 -8 -432 l0 -423 75 0 75 0 0 125 0 125
116 0 c275 0 391 78 402 272 10 175 -53 273 -206 314 -62 17 -441 32 -454 19z
m414 -147 c21 -6 52 -27 68 -45 27 -30 30 -41 30 -101 0 -81 -21 -128 -70
-157 -29 -17 -57 -21 -167 -23 l-133 -4 0 171 0 171 116 0 c64 0 134 -5 156
-12z"/>
<path d="M9947 9303 c-4 -3 -7 -197 -7 -430 l0 -423 75 0 75 0 0 124 0 124
148 4 c164 6 229 23 289 78 62 56 78 102 78 220 -1 94 -3 110 -27 155 -32 62
-49 77 -121 110 -39 18 -86 29 -150 36 -108 10 -351 12 -360 2z m433 -150 c53
-23 74 -59 78 -131 5 -84 -17 -137 -68 -167 -29 -17 -56 -21 -167 -23 l-133
-4 0 170 c0 169 0 171 23 174 41 6 242 -8 267 -19z"/>
<path d="M12038 9305 c-5 -5 -8 -199 -8 -432 l0 -423 75 0 75 0 0 145 0 145
93 0 94 0 102 -145 103 -145 90 0 90 0 -17 28 c-10 15 -25 36 -35 47 -9 11
-50 67 -90 124 -66 95 -72 106 -56 115 94 56 105 66 132 123 25 50 29 70 29
143 0 71 -4 93 -25 135 -30 59 -83 99 -160 121 -61 16 -479 32 -492 19z m455
-149 c58 -24 72 -50 72 -130 -1 -131 -41 -156 -250 -156 l-135 0 0 150 0 150
140 0 c96 0 151 -4 173 -14z"/>
<path d="M12953 9303 c-20 -8 -17 -119 3 -127 9 -3 67 -6 130 -6 l114 0 0
-360 0 -360 75 0 75 0 0 360 0 359 128 3 127 3 0 65 0 65 -320 2 c-176 1 -326
-1 -332 -4z"/>
</g>
</svg>
