<?xml version="1.0" standalone="no"?>
<!DOCTYPE svg PUBLIC "-//W3C//DTD SVG 20010904//EN"
 "http://www.w3.org/TR/2001/REC-SVG-20010904/DTD/svg10.dtd">
<svg version="1.0" xmlns="http://www.w3.org/2000/svg"
 width="476.000000pt" height="525.000000pt" viewBox="0 0 476.000000 525.000000"
 preserveAspectRatio="xMidYMid meet">

<g transform="translate(0.000000,525.000000) scale(0.100000,-0.100000)"
fill="#000000" stroke="none">
<path d="M444 4660 c-12 -4 -31 -21 -43 -36 l-21 -27 0 -1756 c0 -1921 -3
-1818 57 -1920 66 -112 182 -190 313 -211 226 -34 440 125 481 358 42 235
-164 480 -402 482 -48 0 -89 32 -89 70 0 19 9 36 26 49 27 21 29 21 1140 21
l1114 0 0 673 c0 413 4 686 10 708 22 80 123 158 272 210 l83 28 0 650 0 651
-28 27 -27 28 -1433 2 c-787 1 -1442 -2 -1453 -7z m1028 -317 c22 -20 23 -70
1 -95 -13 -15 -31 -18 -100 -18 l-83 0 0 -379 0 -380 -27 -21 c-19 -15 -35
-19 -53 -15 -56 14 -55 4 -58 415 l-3 380 -76 0 c-57 0 -81 4 -95 17 -22 20
-23 70 -1 95 15 16 36 18 246 18 200 0 233 -2 249 -17z m523 -13 c22 -9 59
-37 82 -63 69 -75 73 -102 73 -469 l0 -319 -25 -24 c-29 -30 -55 -32 -86 -6
-23 19 -24 24 -27 200 l-3 181 -130 0 -129 0 0 -179 0 -180 -26 -20 c-33 -26
-45 -26 -78 0 l-27 21 3 352 3 353 30 48 c72 116 214 160 340 105z m390 16
c11 -8 51 -77 90 -155 l70 -141 68 137 c38 76 76 146 85 156 33 37 112 7 112
-43 0 -11 -43 -106 -95 -210 l-95 -189 97 -196 c85 -170 96 -198 87 -222 -5
-15 -21 -34 -36 -42 -49 -28 -68 -7 -151 155 l-75 148 -76 -152 c-81 -162 -97
-178 -148 -151 -57 30 -53 50 56 267 l93 187 -93 190 c-52 105 -94 200 -94
213 0 49 63 78 105 48z m408 -1288 c23 -27 21 -63 -5 -88 -22 -20 -30 -20
-905 -20 -870 0 -883 0 -903 20 -25 25 -26 72 -2 93 24 22 96 23 1037 19 746
-4 760 -4 778 -24z m-3 -258 c25 -25 26 -61 1 -91 l-19 -24 -885 0 c-856 0
-886 1 -906 19 -27 24 -27 70 -1 96 20 20 33 20 905 20 872 0 885 0 905 -20z
m-6 -261 c32 -25 34 -64 4 -96 l-21 -23 -882 0 c-976 0 -925 -3 -925 63 0 37
7 49 35 65 14 8 261 11 891 12 867 0 871 0 898 -21z m6 -269 c24 -24 26 -57 4
-88 l-15 -22 -365 0 c-351 0 -365 1 -384 20 -11 11 -20 31 -20 45 0 14 9 34
20 45 19 19 33 20 380 20 347 0 361 -1 380 -20z"/>
<path d="M1819 4206 c-46 -26 -62 -64 -67 -153 l-5 -83 132 0 131 0 0 85 c0
83 -1 86 -33 121 -28 31 -41 37 -83 40 -31 3 -58 -1 -75 -10z"/>
<path d="M3535 3200 c-90 -14 -233 -57 -288 -88 -91 -49 -109 -97 -54 -149
103 -100 409 -161 685 -135 204 18 360 67 430 135 17 17 32 41 32 53 0 57 -98
117 -265 160 -87 23 -124 27 -290 30 -104 1 -217 -1 -250 -6z"/>
<path d="M3160 2636 l0 -174 42 -36 c50 -43 161 -87 283 -112 126 -25 404 -25
530 0 122 25 233 69 283 112 l42 36 0 174 c0 96 -2 174 -5 174 -3 0 -28 -11
-56 -25 -114 -58 -327 -98 -529 -98 -202 0 -415 40 -529 98 -28 14 -53 25 -56
25 -3 0 -5 -78 -5 -174z"/>
<path d="M3160 2112 c0 -166 1 -171 24 -199 30 -36 137 -86 238 -112 296 -76
732 -29 877 95 l41 36 0 175 c0 136 -3 174 -12 170 -195 -86 -350 -118 -573
-119 -222 -1 -389 33 -582 119 -10 4 -13 -33 -13 -165z"/>
<path d="M4305 1738 c-43 -26 -204 -75 -309 -93 -113 -19 -360 -20 -486 -1
-100 16 -240 56 -302 87 -21 11 -40 19 -43 19 -3 0 -5 -78 -5 -173 l0 -173 28
-27 c15 -14 56 -39 92 -56 253 -118 737 -112 964 12 97 53 97 54 94 253 l-3
171 -30 -19z"/>
<path d="M1226 1503 c91 -99 144 -238 144 -378 0 -143 -45 -261 -142 -369
l-50 -56 986 0 985 0 -54 53 c-34 35 -57 68 -64 93 -7 24 -11 163 -11 372 l0
332 -918 0 -919 0 43 -47z"/>
<path d="M3160 1051 l0 -179 31 -27 c193 -162 782 -186 1050 -44 99 53 99 53
99 255 l0 173 -33 -19 c-50 -30 -161 -66 -262 -87 -128 -25 -465 -26 -583 0
-97 21 -244 69 -278 92 l-24 15 0 -179z"/>
</g>
</svg>
