<?xml version="1.0" standalone="no"?>
<!DOCTYPE svg PUBLIC "-//W3C//DTD SVG 20010904//EN"
 "http://www.w3.org/TR/2001/REC-SVG-20010904/DTD/svg10.dtd">
<svg version="1.0" xmlns="http://www.w3.org/2000/svg"
 width="447.000000pt" height="559.000000pt" viewBox="0 0 447.000000 559.000000"
 preserveAspectRatio="xMidYMid meet">

<g transform="translate(0.000000,559.000000) scale(0.100000,-0.100000)"
fill="#000000" stroke="none">
<path d="M2135 5428 c-43 -25 -44 -32 -45 -300 l0 -258 80 0 80 0 0 250 c0
264 -4 289 -47 309 -30 14 -43 13 -68 -1z"/>
<path d="M976 4679 l-26 -20 0 -283 c0 -282 0 -283 23 -304 l23 -22 1227 0
1228 0 187 156 c103 86 188 160 190 164 1 4 -84 80 -189 169 l-193 161 -1222
0 c-1220 0 -1221 0 -1248 -21z m1413 -244 c35 -34 37 -77 6 -113 l-27 -32
-443 0 -443 0 -27 32 c-21 25 -25 38 -21 61 7 35 23 56 51 68 11 4 215 7 452
6 418 -2 433 -3 452 -22z m491 0 c34 -34 36 -77 5 -113 l-27 -32 -114 0 c-109
0 -116 1 -139 25 -28 27 -34 80 -12 107 26 32 52 38 159 36 92 -3 110 -6 128
-23z"/>
<path d="M2090 3800 l0 -80 80 0 80 0 0 80 0 80 -80 0 -80 0 0 -80z"/>
<path d="M701 3389 c-105 -88 -191 -163 -190 -167 0 -4 85 -78 189 -164 l189
-158 1229 0 1229 0 21 23 c22 23 22 30 22 301 l0 277 -25 24 -24 25 -1225 0
-1224 0 -191 -161z m1688 -104 c12 -11 23 -34 27 -52 5 -27 1 -37 -24 -63
l-30 -30 -437 0 -437 0 -30 30 c-25 26 -29 36 -24 62 7 36 22 57 51 69 11 4
215 7 452 6 418 -2 433 -3 452 -22z m491 0 c11 -11 22 -34 26 -52 5 -27 1 -37
-24 -63 -30 -30 -31 -30 -142 -30 -104 0 -112 1 -135 25 -27 27 -33 79 -12
106 26 34 51 39 159 37 92 -3 110 -6 128 -23z"/>
<path d="M2090 2650 l0 -80 80 0 80 0 0 80 0 80 -80 0 -80 0 0 -80z"/>
<path d="M976 2379 l-26 -20 0 -283 c0 -282 0 -283 23 -304 l23 -22 1228 0
1227 0 189 158 c104 86 189 160 189 164 1 4 -85 80 -191 168 l-192 160 -1222
0 c-1220 0 -1221 0 -1248 -21z m1408 -241 c40 -35 43 -78 11 -116 l-27 -32
-443 0 -443 0 -27 32 c-32 38 -29 81 11 116 l25 22 434 0 434 0 25 -22z m490
0 c40 -35 43 -78 11 -116 l-27 -32 -114 0 c-109 0 -116 1 -139 25 -40 40 -30
116 18 135 12 5 68 9 124 9 92 1 104 -1 127 -21z"/>
<path d="M2090 1210 l0 -370 80 0 80 0 0 370 0 370 -80 0 -80 0 0 -370z"/>
<path d="M1146 670 c-28 -5 -68 -22 -90 -37 -38 -27 -86 -85 -86 -104 0 -5
543 -9 1206 -9 l1206 0 -17 28 c-31 49 -58 72 -114 100 l-56 27 -1000 1 c-550
1 -1022 -2 -1049 -6z"/>
</g>
</svg>
