<?xml version="1.0" standalone="no"?>
<!DOCTYPE svg PUBLIC "-//W3C//DTD SVG 20010904//EN"
 "http://www.w3.org/TR/2001/REC-SVG-20010904/DTD/svg10.dtd">
<svg version="1.0" xmlns="http://www.w3.org/2000/svg"
 width="530.000000pt" height="284.000000pt" viewBox="0 0 530.000000 284.000000"
 preserveAspectRatio="xMidYMid meet">

<g transform="translate(0.000000,284.000000) scale(0.100000,-0.100000)"
fill="#000000" stroke="none">
<path d="M416 2423 c-16 -16 -1 -23 52 -23 75 0 84 -7 80 -61 l-3 -44 -155 -5
c-166 -5 -181 -9 -224 -61 l-26 -31 0 -699 0 -699 -28 -13 c-39 -17 -51 -37
-52 -85 0 -32 6 -48 24 -65 43 -41 70 -57 96 -58 16 -1 19 -3 8 -6 -10 -2 -18
-8 -18 -12 0 -24 40 -47 165 -96 219 -86 307 -105 600 -125 181 -12 191 -14
376 -51 187 -37 246 -37 395 2 235 62 157 59 1384 69 1082 8 1141 8 1265 -10
229 -33 264 -34 330 -9 115 43 178 131 177 250 -1 240 -303 343 -457 155 -28
-35 -40 -42 -60 -38 -14 2 -25 9 -25 14 0 20 30 65 67 100 63 60 117 83 210
86 72 4 89 1 140 -23 114 -52 181 -145 192 -270 6 -66 8 -70 32 -73 19 -2 28
3 37 23 10 20 18 25 51 25 22 0 44 6 51 15 7 8 21 15 31 15 47 0 67 106 29
148 -12 12 -30 22 -40 22 -19 0 -20 7 -20 119 0 66 -4 122 -10 126 -5 3 -66
21 -136 41 -70 19 -133 39 -141 45 -8 7 -13 33 -13 63 l-1 51 -150 175 c-82
96 -155 178 -162 182 -7 4 -105 8 -219 8 -201 0 -245 7 -207 31 8 5 197 9 420
9 454 0 430 -4 444 73 12 62 -1 97 -100 263 -128 215 -192 273 -333 303 -33 7
-178 11 -387 11 l-335 0 0 49 c0 57 6 61 87 61 39 0 53 4 51 13 -4 9 -363 12
-1745 14 -957 1 -1743 -1 -1747 -4z m923 -37 c7 -8 11 -32 9 -53 l-3 -38 -382
-3 -383 -2 0 48 c0 27 3 52 7 55 3 4 172 7 373 7 307 0 370 -2 379 -14z m803
-21 c5 -16 6 -40 3 -52 l-5 -23 -380 0 c-355 0 -380 1 -381 18 -2 28 3 76 8
85 2 4 171 6 375 5 l372 -3 8 -30z m796 -23 l3 -52 -383 2 -383 3 -3 38 c-6
70 -21 68 392 65 l371 -3 3 -53z m800 0 l3 -52 -383 2 -383 3 -3 38 c-6 70
-21 68 392 65 l371 -3 3 -53z m762 -252 c14 -22 12 -194 -2 -208 -17 -17 -309
-17 -326 0 -8 8 -12 47 -12 110 0 82 3 99 18 108 10 6 74 9 165 8 118 -2 150
-6 157 -18z m-729 -339 l29 -29 0 -470 c0 -465 0 -470 -20 -465 -20 5 -20 14
-20 457 0 392 -2 454 -16 474 -15 21 -21 22 -180 22 -95 0 -174 -4 -185 -10
-18 -10 -19 -26 -20 -438 -1 -235 -4 -439 -8 -454 -5 -21 -9 -25 -21 -18 -13
8 -15 69 -18 429 -2 282 0 433 8 460 17 65 36 70 243 71 l179 0 29 -29z
m-1273 -268 l-3 -158 -234 -3 c-302 -3 -281 -15 -281 158 0 104 3 132 16 144
13 14 51 16 260 16 l245 0 -3 -157z m523 147 c17 -10 19 -22 19 -145 0 -127
-1 -135 -22 -149 -19 -13 -60 -16 -244 -16 -122 0 -229 3 -238 6 -14 5 -16 28
-16 153 0 81 3 151 7 154 11 12 472 8 494 -3z m673 -6 c13 -12 16 -40 16 -144
0 -163 3 -160 -157 -160 -153 0 -153 0 -153 160 0 161 -1 160 159 160 95 0
123 -3 135 -16z m824 -136 c45 -25 195 -193 189 -212 -5 -16 -574 -21 -593 -5
-18 15 -20 209 -2 227 8 8 65 12 188 12 164 0 180 -2 218 -22z m170 -768 c45
-28 72 -76 72 -130 0 -46 -30 -110 -50 -110 -6 0 -9 4 -5 9 3 6 -11 21 -31 34
-21 15 -31 28 -25 32 19 11 12 53 -11 69 -30 21 -44 20 -68 -4 -11 -11 -20
-17 -20 -12 0 4 -16 16 -35 26 -19 11 -35 24 -35 31 0 13 34 46 65 63 33 18
106 14 143 -8z"/>
</g>
</svg>
